<?xml version="1.0" encoding="UTF-8" standalone="no"?>
<!DOCTYPE svg PUBLIC "-//W3C//DTD SVG 1.1//EN"
 "http://www.w3.org/Graphics/SVG/1.1/DTD/svg11.dtd">
<!-- Generated by graphviz version 2.40.1 (20161225.0304)
 -->
<!-- Title: controls Pages: 1 -->
<svg width="1611pt" height="1070pt"
 viewBox="0.00 0.00 1611.00 1070.00" xmlns="http://www.w3.org/2000/svg" xmlns:xlink="http://www.w3.org/1999/xlink">
<g id="graph0" class="graph" transform="scale(1 1) rotate(0) translate(4 1066)">
<title>controls</title>
<polygon fill="#ffffff" stroke="transparent" points="-4,4 -4,-1066 1606.997,-1066 1606.997,4 -4,4"/>
<!-- controls -->
<g id="node1" class="node">
<title>controls</title>
<polygon fill="none" stroke="#000000" points="64.3417,-522 -.1142,-522 -.1142,-486 64.3417,-486 64.3417,-522"/>
<text text-anchor="middle" x="32.1138" y="-499.8" font-family="Times,serif" font-size="14.00" fill="#000000">Controls</text>
</g>
<!-- control_2 -->
<g id="node2" class="node">
<title>control_2</title>
<polygon fill="none" stroke="#000000" points="547.8118,-981 177.9753,-981 177.9753,-945 547.8118,-945 547.8118,-981"/>
<text text-anchor="middle" x="362.8936" y="-958.8" font-family="Times,serif" font-size="14.00" fill="#000000">Control 2: Inventory of Authorized and Unauthorized Software</text>
</g>
<!-- controls&#45;&#45;control_2 -->
<g id="edge1" class="edge">
<title>controls&#45;&#45;control_2</title>
<path fill="none" stroke="#000000" d="M33.8683,-522.0642C40.0758,-582.8254 62.6656,-778.7562 100.2275,-828 147.4928,-889.965 231.2306,-925.9393 291.4669,-944.9418"/>
</g>
<!-- control_3_5 -->
<g id="node6" class="node">
<title>control_3_5</title>
<polygon fill="none" stroke="#000000" points="544.877,-819 180.9102,-819 180.9102,-783 544.877,-783 544.877,-819"/>
<text text-anchor="middle" x="362.8936" y="-796.8" font-family="Times,serif" font-size="14.00" fill="#000000">Control 3.5: Use File Integrity Tools For Critical System Files</text>
</g>
<!-- controls&#45;&#45;control_3_5 -->
<g id="edge5" class="edge">
<title>controls&#45;&#45;control_3_5</title>
<path fill="none" stroke="#000000" d="M35.4533,-522.0137C42.3015,-554.4714 60.7363,-623.3557 100.2275,-666 155.2708,-725.4379 242.4248,-762.9314 301.0859,-782.927"/>
</g>
<!-- control_4_5 -->
<g id="node10" class="node">
<title>control_4_5</title>
<polygon fill="none" stroke="#000000" points="584.9395,-657 140.8477,-657 140.8477,-621 584.9395,-621 584.9395,-657"/>
<text text-anchor="middle" x="362.8936" y="-634.8" font-family="Times,serif" font-size="14.00" fill="#000000">Control 4.5: Use Automated Patch Management And Software Update Tools</text>
</g>
<!-- controls&#45;&#45;control_4_5 -->
<g id="edge9" class="edge">
<title>controls&#45;&#45;control_4_5</title>
<path fill="none" stroke="#000000" d="M64.4326,-517.1902C124.0123,-541.5062 251.2263,-593.4256 318.718,-620.9708"/>
</g>
<!-- control_5_1 -->
<g id="node14" class="node">
<title>control_5_1</title>
<polygon fill="none" stroke="#000000" points="561.7696,-522 164.0176,-522 164.0176,-486 561.7696,-486 561.7696,-522"/>
<text text-anchor="middle" x="362.8936" y="-499.8" font-family="Times,serif" font-size="14.00" fill="#000000">Control 5.1: Minimize And Sparingly Use Administrative Privileges</text>
</g>
<!-- controls&#45;&#45;control_5_1 -->
<g id="edge13" class="edge">
<title>controls&#45;&#45;control_5_1</title>
<path fill="none" stroke="#000000" d="M64.4326,-504C89.061,-504 125.2465,-504 163.9931,-504"/>
</g>
<!-- control_6_3 -->
<g id="node18" class="node">
<title>control_6_3</title>
<polygon fill="none" stroke="#000000" points="625.7257,-414 100.0614,-414 100.0614,-378 625.7257,-378 625.7257,-414"/>
<text text-anchor="middle" x="362.8936" y="-391.8" font-family="Times,serif" font-size="14.00" fill="#000000">Control 6.3: Ensure Audit Logging Systems Are Not Subject To Loss (i.e. rotation/archive)</text>
</g>
<!-- controls&#45;&#45;control_6_3 -->
<g id="edge17" class="edge">
<title>controls&#45;&#45;control_6_3</title>
<path fill="none" stroke="#000000" d="M64.4861,-490.5682C75.7299,-486.0631 88.4679,-481.1368 100.2275,-477 167.6399,-453.2857 246.064,-429.5987 299.5497,-414.0217"/>
</g>
<!-- control_8 -->
<g id="node21" class="node">
<title>control_8</title>
<polygon fill="none" stroke="#000000" points="453.6251,-279 272.162,-279 272.162,-243 453.6251,-243 453.6251,-279"/>
<text text-anchor="middle" x="362.8936" y="-256.8" font-family="Times,serif" font-size="14.00" fill="#000000">Control 8: Malware Defenses</text>
</g>
<!-- controls&#45;&#45;control_8 -->
<g id="edge20" class="edge">
<title>controls&#45;&#45;control_8</title>
<path fill="none" stroke="#000000" d="M36.8348,-485.7572C45.1004,-457.1982 64.7797,-401.8124 100.2275,-369 150.342,-322.6115 223.1129,-294.8054 279.3568,-279.0528"/>
</g>
<!-- control_13 -->
<g id="node28" class="node">
<title>control_13</title>
<polygon fill="none" stroke="#000000" points="448.5352,-117 277.2519,-117 277.2519,-81 448.5352,-81 448.5352,-117"/>
<text text-anchor="middle" x="362.8936" y="-94.8" font-family="Times,serif" font-size="14.00" fill="#000000">Control 13: Data Protection</text>
</g>
<!-- controls&#45;&#45;control_13 -->
<g id="edge27" class="edge">
<title>controls&#45;&#45;control_13</title>
<path fill="none" stroke="#000000" d="M34.6891,-485.9891C42.6768,-432.2049 68.4174,-274.0214 100.2275,-234 149.1185,-172.4887 233.6033,-136.244 293.5461,-117.0583"/>
</g>
<!-- tmp_noexec -->
<g id="node3" class="node">
<title>tmp_noexec</title>
<ellipse fill="none" stroke="#000000" cx="882.9035" cy="-1044" rx="160.3311" ry="18"/>
<text text-anchor="middle" x="882.9035" y="-1039.8" font-family="Times,serif" font-size="14.00" fill="#000000">Ensure noexec option set on /tmp partition</text>
</g>
<!-- control_2&#45;&#45;tmp_noexec -->
<g id="edge2" class="edge">
<title>control_2&#45;&#45;tmp_noexec</title>
<path fill="none" stroke="#000000" d="M454.8292,-981.0336C513.774,-992.246 592.0064,-1006.479 661.5596,-1017 696.2961,-1022.2544 734.2201,-1027.1765 768.7065,-1031.3415"/>
</g>
<!-- var_tmp_noexec -->
<g id="node4" class="node">
<title>var_tmp_noexec</title>
<ellipse fill="none" stroke="#000000" cx="882.9035" cy="-990" rx="174.3288" ry="18"/>
<text text-anchor="middle" x="882.9035" y="-985.8" font-family="Times,serif" font-size="14.00" fill="#000000">Ensure noexec option set on /var/tmp partition</text>
</g>
<!-- control_2&#45;&#45;var_tmp_noexec -->
<g id="edge3" class="edge">
<title>control_2&#45;&#45;var_tmp_noexec</title>
<path fill="none" stroke="#000000" d="M547.6938,-972.5952C606.3708,-975.6418 670.6389,-978.9788 727.065,-981.9085"/>
</g>
<!-- dev_shm_noexec -->
<g id="node5" class="node">
<title>dev_shm_noexec</title>
<ellipse fill="none" stroke="#000000" cx="882.9035" cy="-936" rx="176.7514" ry="18"/>
<text text-anchor="middle" x="882.9035" y="-931.8" font-family="Times,serif" font-size="14.00" fill="#000000">Ensure noexec option set on /dev/shm partition</text>
</g>
<!-- control_2&#45;&#45;dev_shm_noexec -->
<g id="edge4" class="edge">
<title>control_2&#45;&#45;dev_shm_noexec</title>
<path fill="none" stroke="#000000" d="M547.6938,-953.4048C605.7869,-950.3885 669.3605,-947.0876 725.3783,-944.179"/>
</g>
<!-- install_AIDE -->
<g id="node7" class="node">
<title>install_AIDE</title>
<ellipse fill="none" stroke="#000000" cx="882.9035" cy="-882" rx="97.5893" ry="18"/>
<text text-anchor="middle" x="882.9035" y="-877.8" font-family="Times,serif" font-size="14.00" fill="#000000">Ensure AIDE is installed</text>
</g>
<!-- control_3_5&#45;&#45;install_AIDE -->
<g id="edge6" class="edge">
<title>control_3_5&#45;&#45;install_AIDE</title>
<path fill="none" stroke="#000000" d="M454.8292,-819.0336C513.774,-830.246 592.0064,-844.479 661.5596,-855 706.6309,-861.8177 757.0686,-868.0759 798.4005,-872.8469"/>
</g>
<!-- integrity_check -->
<g id="node8" class="node">
<title>integrity_check</title>
<ellipse fill="none" stroke="#000000" cx="882.9035" cy="-828" rx="178.1628" ry="18"/>
<text text-anchor="middle" x="882.9035" y="-823.8" font-family="Times,serif" font-size="14.00" fill="#000000">Ensure filesystem integrity is regularly checked</text>
</g>
<!-- control_3_5&#45;&#45;integrity_check -->
<g id="edge7" class="edge">
<title>control_3_5&#45;&#45;integrity_check</title>
<path fill="none" stroke="#000000" d="M545.133,-810.4623C603.5397,-813.4949 667.7126,-816.8268 724.2904,-819.7645"/>
</g>
<!-- prelink -->
<g id="node9" class="node">
<title>prelink</title>
<ellipse fill="none" stroke="#000000" cx="882.9035" cy="-774" rx="101.931" ry="18"/>
<text text-anchor="middle" x="882.9035" y="-769.8" font-family="Times,serif" font-size="14.00" fill="#000000">Ensure prelink is disabled</text>
</g>
<!-- control_3_5&#45;&#45;prelink -->
<g id="edge8" class="edge">
<title>control_3_5&#45;&#45;prelink</title>
<path fill="none" stroke="#000000" d="M545.133,-791.5377C625.9363,-787.3423 717.7757,-782.5738 785.2724,-779.0692"/>
</g>
<!-- config_yum -->
<g id="node11" class="node">
<title>config_yum</title>
<ellipse fill="none" stroke="#000000" cx="882.9035" cy="-720" rx="195.007" ry="18"/>
<text text-anchor="middle" x="882.9035" y="-715.8" font-family="Times,serif" font-size="14.00" fill="#000000">Ensure package manager repositories are configured</text>
</g>
<!-- control_4_5&#45;&#45;config_yum -->
<g id="edge10" class="edge">
<title>control_4_5&#45;&#45;config_yum</title>
<path fill="none" stroke="#000000" d="M454.8292,-657.0336C513.774,-668.246 592.0064,-682.479 661.5596,-693 692.9468,-697.7478 726.9366,-702.2242 758.6412,-706.116"/>
</g>
<!-- yum_gpg -->
<g id="node12" class="node">
<title>yum_gpg</title>
<ellipse fill="none" stroke="#000000" cx="882.9035" cy="-666" rx="126.0524" ry="18"/>
<text text-anchor="middle" x="882.9035" y="-661.8" font-family="Times,serif" font-size="14.00" fill="#000000">Ensure GPG keys are configured</text>
</g>
<!-- control_4_5&#45;&#45;yum_gpg -->
<g id="edge11" class="edge">
<title>control_4_5&#45;&#45;yum_gpg</title>
<path fill="none" stroke="#000000" d="M584.9329,-650.5287C646.4919,-653.725 710.9525,-657.0719 764.1095,-659.832"/>
</g>
<!-- yum_gpg_check -->
<g id="node13" class="node">
<title>yum_gpg_check</title>
<ellipse fill="none" stroke="#000000" cx="882.9035" cy="-612" rx="144.3765" ry="18"/>
<text text-anchor="middle" x="882.9035" y="-607.8" font-family="Times,serif" font-size="14.00" fill="#000000">Ensure gpgcheck is globally activated</text>
</g>
<!-- control_4_5&#45;&#45;yum_gpg_check -->
<g id="edge12" class="edge">
<title>control_4_5&#45;&#45;yum_gpg_check</title>
<path fill="none" stroke="#000000" d="M584.9329,-627.4713C640.9709,-624.5616 699.4134,-621.5272 749.5446,-618.9243"/>
</g>
<!-- bootloader_perms -->
<g id="node15" class="node">
<title>bootloader_perms</title>
<ellipse fill="none" stroke="#000000" cx="882.9035" cy="-558" rx="207.6383" ry="18"/>
<text text-anchor="middle" x="882.9035" y="-553.8" font-family="Times,serif" font-size="14.00" fill="#000000">Ensure permissions on bootloader config are configured</text>
</g>
<!-- control_5_1&#45;&#45;bootloader_perms -->
<g id="edge14" class="edge">
<title>control_5_1&#45;&#45;bootloader_perms</title>
<path fill="none" stroke="#000000" d="M536.4107,-522.0187C605.9665,-529.2417 684.8418,-537.4325 749.7479,-544.1726"/>
</g>
<!-- bootloader_passwd -->
<g id="node16" class="node">
<title>bootloader_passwd</title>
<ellipse fill="none" stroke="#000000" cx="882.9035" cy="-504" rx="130.4045" ry="18"/>
<text text-anchor="middle" x="882.9035" y="-499.8" font-family="Times,serif" font-size="14.00" fill="#000000">Ensure bootloader password is set</text>
</g>
<!-- control_5_1&#45;&#45;bootloader_passwd -->
<g id="edge15" class="edge">
<title>control_5_1&#45;&#45;bootloader_passwd</title>
<path fill="none" stroke="#000000" d="M562.0843,-504C625.8459,-504 694.7768,-504 752.3428,-504"/>
</g>
<!-- single_user_mode_auth -->
<g id="node17" class="node">
<title>single_user_mode_auth</title>
<ellipse fill="none" stroke="#000000" cx="882.9035" cy="-450" rx="193.1045" ry="18"/>
<text text-anchor="middle" x="882.9035" y="-445.8" font-family="Times,serif" font-size="14.00" fill="#000000">Ensure authentication required for single user mode</text>
</g>
<!-- control_5_1&#45;&#45;single_user_mode_auth -->
<g id="edge16" class="edge">
<title>control_5_1&#45;&#45;single_user_mode_auth</title>
<path fill="none" stroke="#000000" d="M536.4107,-485.9813C607.2956,-478.6203 687.8596,-470.2542 753.4532,-463.4427"/>
</g>
<!-- var_log_partition -->
<g id="node19" class="node">
<title>var_log_partition</title>
<ellipse fill="none" stroke="#000000" cx="882.9035" cy="-396" rx="162.7183" ry="18"/>
<text text-anchor="middle" x="882.9035" y="-391.8" font-family="Times,serif" font-size="14.00" fill="#000000">Ensure separate partition exists for /var/log</text>
</g>
<!-- control_6_3&#45;&#45;var_log_partition -->
<g id="edge18" class="edge">
<title>control_6_3&#45;&#45;var_log_partition</title>
<path fill="none" stroke="#000000" d="M625.5645,-396C657.8415,-396 690.0636,-396 720.2411,-396"/>
</g>
<!-- var_log_audit_partition -->
<g id="node20" class="node">
<title>var_log_audit_partition</title>
<ellipse fill="none" stroke="#000000" cx="882.9035" cy="-342" rx="182.9978" ry="18"/>
<text text-anchor="middle" x="882.9035" y="-337.8" font-family="Times,serif" font-size="14.00" fill="#000000">Ensure separate partition exists for /var/log/audit</text>
</g>
<!-- control_6_3&#45;&#45;var_log_audit_partition -->
<g id="edge19" class="edge">
<title>control_6_3&#45;&#45;var_log_audit_partition</title>
<path fill="none" stroke="#000000" d="M536.4107,-377.9813C608.6247,-370.4823 690.8841,-361.9401 757.1269,-355.0612"/>
</g>
<!-- removable_media_noexec -->
<g id="node22" class="node">
<title>removable_media_noexec</title>
<ellipse fill="none" stroke="#000000" cx="882.9035" cy="-288" rx="208.5653" ry="18"/>
<text text-anchor="middle" x="882.9035" y="-283.8" font-family="Times,serif" font-size="14.00" fill="#000000">Ensure noexec option set on removable media partitions</text>
</g>
<!-- control_8&#45;&#45;removable_media_noexec -->
<g id="edge21" class="edge">
<title>control_8&#45;&#45;removable_media_noexec</title>
<path fill="none" stroke="#000000" d="M453.7697,-265.7185C522.6962,-269.2973 619.6348,-274.3305 703.9422,-278.708"/>
</g>
<!-- control_8_3 -->
<g id="node23" class="node">
<title>control_8_3</title>
<polygon fill="none" stroke="#000000" points="1043.9005,-252 721.9064,-252 721.9064,-216 1043.9005,-216 1043.9005,-252"/>
<text text-anchor="middle" x="882.9035" y="-229.8" font-family="Times,serif" font-size="14.00" fill="#000000">Control 8.3: Limit Use Of External Devices (i.e. USB)</text>
</g>
<!-- control_8&#45;&#45;control_8_3 -->
<g id="edge22" class="edge">
<title>control_8&#45;&#45;control_8_3</title>
<path fill="none" stroke="#000000" d="M453.7697,-256.2815C527.6455,-252.4457 633.7007,-246.9391 721.893,-242.36"/>
</g>
<!-- control_8_4 -->
<g id="node25" class="node">
<title>control_8_4</title>
<ellipse fill="none" stroke="#000000" cx="882.9035" cy="-180" rx="221.1879" ry="18"/>
<text text-anchor="middle" x="882.9035" y="-175.8" font-family="Times,serif" font-size="14.00" fill="#000000">Enable Anti&#45;exploitation Features (i.e. DEP, ASLR, EMET)</text>
</g>
<!-- control_8&#45;&#45;control_8_4 -->
<g id="edge24" class="edge">
<title>control_8&#45;&#45;control_8_4</title>
<path fill="none" stroke="#000000" d="M453.8376,-243.155C512.8947,-231.914 591.6156,-217.5801 661.5596,-207 691.033,-202.5417 722.8011,-198.3227 752.8172,-194.6023"/>
</g>
<!-- disable_automounting -->
<g id="node24" class="node">
<title>disable_automounting</title>
<ellipse fill="none" stroke="#000000" cx="1371.6222" cy="-234" rx="90.3729" ry="18"/>
<text text-anchor="middle" x="1371.6222" y="-229.8" font-family="Times,serif" font-size="14.00" fill="#000000">Disable Automounting</text>
</g>
<!-- control_8_3&#45;&#45;disable_automounting -->
<g id="edge23" class="edge">
<title>control_8_3&#45;&#45;disable_automounting</title>
<path fill="none" stroke="#000000" d="M1043.9438,-234C1122.6521,-234 1214.4616,-234 1280.8427,-234"/>
</g>
<!-- no_execute -->
<g id="node26" class="node">
<title>no_execute</title>
<ellipse fill="none" stroke="#000000" cx="1371.6222" cy="-180" rx="131.3735" ry="18"/>
<text text-anchor="middle" x="1371.6222" y="-175.8" font-family="Times,serif" font-size="14.00" fill="#000000">Ensure XD/NX support is enabled</text>
</g>
<!-- control_8_4&#45;&#45;no_execute -->
<g id="edge25" class="edge">
<title>control_8_4&#45;&#45;no_execute</title>
<path fill="none" stroke="#000000" d="M1104.384,-180C1150.728,-180 1198.1794,-180 1239.9915,-180"/>
</g>
<!-- aslr -->
<g id="node27" class="node">
<title>aslr</title>
<ellipse fill="none" stroke="#000000" cx="1371.6222" cy="-126" rx="231.2497" ry="18"/>
<text text-anchor="middle" x="1371.6222" y="-121.8" font-family="Times,serif" font-size="14.00" fill="#000000">Ensure address space layout randomization (ASLR) is enabled</text>
</g>
<!-- control_8_4&#45;&#45;aslr -->
<g id="edge26" class="edge">
<title>control_8_4&#45;&#45;aslr</title>
<path fill="none" stroke="#000000" d="M1014.1924,-165.4935C1083.6028,-157.8241 1168.6273,-148.4295 1238.334,-140.7274"/>
</g>
<!-- disbale_fs -->
<g id="node29" class="node">
<title>disbale_fs</title>
<ellipse fill="none" stroke="#000000" cx="882.9035" cy="-126" rx="105.8078" ry="18"/>
<text text-anchor="middle" x="882.9035" y="-121.8" font-family="Times,serif" font-size="14.00" fill="#000000">Disable unused filesystems</text>
</g>
<!-- control_13&#45;&#45;disbale_fs -->
<g id="edge28" class="edge">
<title>control_13&#45;&#45;disbale_fs</title>
<path fill="none" stroke="#000000" d="M448.4713,-103.4434C539.7195,-108.1812 684.1632,-115.681 781.1669,-120.7176"/>
</g>
<!-- sticky_bit -->
<g id="node30" class="node">
<title>sticky_bit</title>
<ellipse fill="none" stroke="#000000" cx="882.9035" cy="-72" rx="207.6297" ry="18"/>
<text text-anchor="middle" x="882.9035" y="-67.8" font-family="Times,serif" font-size="14.00" fill="#000000">Ensure sticky bit is set on all world_writable directories</text>
</g>
<!-- control_13&#45;&#45;sticky_bit -->
<g id="edge29" class="edge">
<title>control_13&#45;&#45;sticky_bit</title>
<path fill="none" stroke="#000000" d="M448.4713,-94.5566C517.8805,-90.9528 618.0691,-85.7508 704.7446,-81.2504"/>
</g>
<!-- core_dump -->
<g id="node31" class="node">
<title>core_dump</title>
<ellipse fill="none" stroke="#000000" cx="882.9035" cy="-18" rx="126.0092" ry="18"/>
<text text-anchor="middle" x="882.9035" y="-13.8" font-family="Times,serif" font-size="14.00" fill="#000000">Ensure core dumps are restricted</text>
</g>
<!-- control_13&#45;&#45;core_dump -->
<g id="edge30" class="edge">
<title>control_13&#45;&#45;core_dump</title>
<path fill="none" stroke="#000000" d="M448.6119,-82.1514C508.1959,-70.7715 589.5316,-55.8953 661.5596,-45 701.0807,-39.0218 744.7279,-33.4739 782.7441,-28.9816"/>
</g>
</g>
</svg>
