<?xml version="1.0" encoding="UTF-8" standalone="no"?>
<!DOCTYPE svg PUBLIC "-//W3C//DTD SVG 1.1//EN"
 "http://www.w3.org/Graphics/SVG/1.1/DTD/svg11.dtd">
<!-- Generated by graphviz version 2.40.1 (20161225.0304)
 -->
<!-- Title: controls Pages: 1 -->
<svg width="1607pt" height="1394pt"
 viewBox="0.00 0.00 1607.02 1394.00" xmlns="http://www.w3.org/2000/svg" xmlns:xlink="http://www.w3.org/1999/xlink">
<g id="graph0" class="graph" transform="scale(1 1) rotate(0) translate(4 1390)">
<title>controls</title>
<polygon fill="#ffffff" stroke="transparent" points="-4,4 -4,-1390 1603.0154,-1390 1603.0154,4 -4,4"/>
<!-- controls -->
<g id="node1" class="node">
<title>controls</title>
<polygon fill="none" stroke="#000000" points="64.3417,-684 -.1142,-684 -.1142,-648 64.3417,-648 64.3417,-684"/>
<text text-anchor="middle" x="32.1138" y="-661.8" font-family="Times,serif" font-size="14.00" fill="#000000">Controls</text>
</g>
<!-- control_2 -->
<g id="node2" class="node">
<title>control_2</title>
<polygon fill="none" stroke="#000000" points="469.8547,-1305 100.0183,-1305 100.0183,-1269 469.8547,-1269 469.8547,-1305"/>
<text text-anchor="middle" x="284.9365" y="-1282.8" font-family="Times,serif" font-size="14.00" fill="#000000">Control 2: Inventory of Authorized and Unauthorized Software</text>
</g>
<!-- controls&#45;&#45;control_2 -->
<g id="edge1" class="edge">
<title>controls&#45;&#45;control_2</title>
<path fill="none" stroke="#000000" d="M33.3433,-684.1515C39.5282,-773.4024 68.2094,-1163.1305 100.2275,-1206 123.7998,-1237.5612 162.3251,-1257.0257 198.1088,-1268.9303"/>
</g>
<!-- control_3 -->
<g id="node6" class="node">
<title>control_3</title>
<polygon fill="none" stroke="#000000" points="319.7164,-1197 250.1567,-1197 250.1567,-1161 319.7164,-1161 319.7164,-1197"/>
<text text-anchor="middle" x="284.9365" y="-1174.8" font-family="Times,serif" font-size="14.00" fill="#000000">Control 3</text>
</g>
<!-- controls&#45;&#45;control_3 -->
<g id="edge5" class="edge">
<title>controls&#45;&#45;control_3</title>
<path fill="none" stroke="#000000" d="M33.6849,-684.2178C38.2724,-730.7213 54.3556,-856.7269 100.2275,-950 143.9583,-1038.9192 227.4843,-1124.5803 265.3771,-1160.8569"/>
</g>
<!-- control_4 -->
<g id="node11" class="node">
<title>control_4</title>
<polygon fill="none" stroke="#000000" points="319.7164,-941 250.1567,-941 250.1567,-905 319.7164,-905 319.7164,-941"/>
<text text-anchor="middle" x="284.9365" y="-918.8" font-family="Times,serif" font-size="14.00" fill="#000000">Control 4</text>
</g>
<!-- controls&#45;&#45;control_4 -->
<g id="edge10" class="edge">
<title>controls&#45;&#45;control_4</title>
<path fill="none" stroke="#000000" d="M41.1135,-684.0541C52.8434,-706.5572 74.8768,-745.5202 100.2275,-774 148.8511,-828.625 218.8458,-879.1318 257.2002,-904.9704"/>
</g>
<!-- control_5 -->
<g id="node17" class="node">
<title>control_5</title>
<polygon fill="none" stroke="#000000" points="319.7164,-765 250.1567,-765 250.1567,-729 319.7164,-729 319.7164,-765"/>
<text text-anchor="middle" x="284.9365" y="-742.8" font-family="Times,serif" font-size="14.00" fill="#000000">Control 5</text>
</g>
<!-- controls&#45;&#45;control_5 -->
<g id="edge16" class="edge">
<title>controls&#45;&#45;control_5</title>
<path fill="none" stroke="#000000" d="M64.3907,-676.341C112.048,-691.6095 200.8859,-720.0716 250.0159,-735.8121"/>
</g>
<!-- control_6 -->
<g id="node25" class="node">
<title>control_6</title>
<polygon fill="none" stroke="#000000" points="319.7164,-657 250.1567,-657 250.1567,-621 319.7164,-621 319.7164,-657"/>
<text text-anchor="middle" x="284.9365" y="-634.8" font-family="Times,serif" font-size="14.00" fill="#000000">Control 6</text>
</g>
<!-- controls&#45;&#45;control_6 -->
<g id="edge24" class="edge">
<title>controls&#45;&#45;control_6</title>
<path fill="none" stroke="#000000" d="M64.3907,-662.553C112.048,-657.4635 200.8859,-647.9761 250.0159,-642.7293"/>
</g>
<!-- control_8 -->
<g id="node29" class="node">
<title>control_8</title>
<polygon fill="none" stroke="#000000" points="375.6681,-549 194.2049,-549 194.2049,-513 375.6681,-513 375.6681,-549"/>
<text text-anchor="middle" x="284.9365" y="-526.8" font-family="Times,serif" font-size="14.00" fill="#000000">Control 8: Malware Defenses</text>
</g>
<!-- controls&#45;&#45;control_8 -->
<g id="edge28" class="edge">
<title>controls&#45;&#45;control_8</title>
<path fill="none" stroke="#000000" d="M52.267,-647.7491C65.3184,-636.521 83.0314,-622.35 100.2275,-612 143.4284,-585.9983 196.4713,-563.6196 234.615,-549.0151"/>
</g>
<!-- control_9 -->
<g id="node36" class="node">
<title>control_9</title>
<polygon fill="none" stroke="#000000" points="319.7164,-360 250.1567,-360 250.1567,-324 319.7164,-324 319.7164,-360"/>
<text text-anchor="middle" x="284.9365" y="-337.8" font-family="Times,serif" font-size="14.00" fill="#000000">Control 9</text>
</g>
<!-- controls&#45;&#45;control_9 -->
<g id="edge35" class="edge">
<title>controls&#45;&#45;control_9</title>
<path fill="none" stroke="#000000" d="M36.8804,-647.6319C45.679,-616.0897 66.6947,-550.5355 100.2275,-504 144.9879,-441.8834 217.7896,-387.2296 257.3029,-360.1124"/>
</g>
<!-- control_13 -->
<g id="node45" class="node">
<title>control_13</title>
<polygon fill="none" stroke="#000000" points="370.5782,-171 199.2949,-171 199.2949,-135 370.5782,-135 370.5782,-171"/>
<text text-anchor="middle" x="284.9365" y="-148.8" font-family="Times,serif" font-size="14.00" fill="#000000">Control 13: Data Protection</text>
</g>
<!-- controls&#45;&#45;control_13 -->
<g id="edge44" class="edge">
<title>controls&#45;&#45;control_13</title>
<path fill="none" stroke="#000000" d="M34.0884,-647.6714C41.186,-584.0224 66.7673,-373.2721 100.2275,-315 137.8217,-249.5287 211.7289,-197.149 253.7635,-171.0558"/>
</g>
<!-- tmp_noexec -->
<g id="node3" class="node">
<title>tmp_noexec</title>
<ellipse fill="none" stroke="#000000" cx="768.3115" cy="-1368" rx="160.3311" ry="18"/>
<text text-anchor="middle" x="768.3115" y="-1363.8" font-family="Times,serif" font-size="14.00" fill="#000000">Ensure noexec option set on /tmp partition</text>
</g>
<!-- control_2&#45;&#45;tmp_noexec -->
<g id="edge2" class="edge">
<title>control_2&#45;&#45;tmp_noexec</title>
<path fill="none" stroke="#000000" d="M348.6716,-1305.06C392.493,-1316.8672 452.1977,-1331.7597 505.6455,-1341 547.5425,-1348.2433 593.5593,-1353.7822 635.211,-1357.9009"/>
</g>
<!-- var_tmp_noexec -->
<g id="node4" class="node">
<title>var_tmp_noexec</title>
<ellipse fill="none" stroke="#000000" cx="768.3115" cy="-1314" rx="174.3288" ry="18"/>
<text text-anchor="middle" x="768.3115" y="-1309.8" font-family="Times,serif" font-size="14.00" fill="#000000">Ensure noexec option set on /var/tmp partition</text>
</g>
<!-- control_2&#45;&#45;var_tmp_noexec -->
<g id="edge3" class="edge">
<title>control_2&#45;&#45;var_tmp_noexec</title>
<path fill="none" stroke="#000000" d="M469.7489,-1297.3231C517.7227,-1300.0028 568.8661,-1302.8595 615.0211,-1305.4376"/>
</g>
<!-- dev_shm_noexec -->
<g id="node5" class="node">
<title>dev_shm_noexec</title>
<ellipse fill="none" stroke="#000000" cx="768.3115" cy="-1260" rx="176.7514" ry="18"/>
<text text-anchor="middle" x="768.3115" y="-1255.8" font-family="Times,serif" font-size="14.00" fill="#000000">Ensure noexec option set on /dev/shm partition</text>
</g>
<!-- control_2&#45;&#45;dev_shm_noexec -->
<g id="edge4" class="edge">
<title>control_2&#45;&#45;dev_shm_noexec</title>
<path fill="none" stroke="#000000" d="M469.7489,-1276.6769C517.0564,-1274.0344 567.446,-1271.2198 613.0951,-1268.67"/>
</g>
<!-- control_3_5 -->
<g id="node7" class="node">
<title>control_3_5</title>
<polygon fill="none" stroke="#000000" points="950.2949,-1224 586.3281,-1224 586.3281,-1188 950.2949,-1188 950.2949,-1224"/>
<text text-anchor="middle" x="768.3115" y="-1201.8" font-family="Times,serif" font-size="14.00" fill="#000000">Control 3.5: Use File Integrity Tools For Critical System Files</text>
</g>
<!-- control_3&#45;&#45;control_3_5 -->
<g id="edge6" class="edge">
<title>control_3&#45;&#45;control_3_5</title>
<path fill="none" stroke="#000000" d="M319.6997,-1180.9418C375.2247,-1184.0432 487.7077,-1190.3262 586.144,-1195.8246"/>
</g>
<!-- install_AIDE -->
<g id="node8" class="node">
<title>install_AIDE</title>
<ellipse fill="none" stroke="#000000" cx="1332.9965" cy="-1314" rx="97.5893" ry="18"/>
<text text-anchor="middle" x="1332.9965" y="-1309.8" font-family="Times,serif" font-size="14.00" fill="#000000">Ensure AIDE is installed</text>
</g>
<!-- control_3_5&#45;&#45;install_AIDE -->
<g id="edge7" class="edge">
<title>control_3_5&#45;&#45;install_AIDE</title>
<path fill="none" stroke="#000000" d="M950.6305,-1203.7969C978.9066,-1209.2462 1006.7361,-1218.3827 1030.9775,-1233 1055.6788,-1247.8945 1042.2667,-1272.1213 1066.9775,-1287 1121.2618,-1319.6852 1193.2876,-1325.191 1248.702,-1323.209"/>
</g>
<!-- integrity_check -->
<g id="node9" class="node">
<title>integrity_check</title>
<ellipse fill="none" stroke="#000000" cx="1332.9965" cy="-1260" rx="178.1628" ry="18"/>
<text text-anchor="middle" x="1332.9965" y="-1255.8" font-family="Times,serif" font-size="14.00" fill="#000000">Ensure filesystem integrity is regularly checked</text>
</g>
<!-- control_3_5&#45;&#45;integrity_check -->
<g id="edge8" class="edge">
<title>control_3_5&#45;&#45;integrity_check</title>
<path fill="none" stroke="#000000" d="M950.4791,-1223.4204C1032.8321,-1231.2957 1128.2491,-1240.4203 1203.1837,-1247.5862"/>
</g>
<!-- prelink -->
<g id="node10" class="node">
<title>prelink</title>
<ellipse fill="none" stroke="#000000" cx="1332.9965" cy="-1206" rx="101.931" ry="18"/>
<text text-anchor="middle" x="1332.9965" y="-1201.8" font-family="Times,serif" font-size="14.00" fill="#000000">Ensure prelink is disabled</text>
</g>
<!-- control_3_5&#45;&#45;prelink -->
<g id="edge9" class="edge">
<title>control_3_5&#45;&#45;prelink</title>
<path fill="none" stroke="#000000" d="M950.4791,-1206C1043.4687,-1206 1153.1149,-1206 1231.1217,-1206"/>
</g>
<!-- control_4_5 -->
<g id="node12" class="node">
<title>control_4_5</title>
<polygon fill="none" stroke="#000000" points="990.3574,-1062 546.2656,-1062 546.2656,-1026 990.3574,-1026 990.3574,-1062"/>
<text text-anchor="middle" x="768.3115" y="-1039.8" font-family="Times,serif" font-size="14.00" fill="#000000">Control 4.5: Use Automated Patch Management And Software Update Tools</text>
</g>
<!-- control_4&#45;&#45;control_4_5 -->
<g id="edge11" class="edge">
<title>control_4&#45;&#45;control_4_5</title>
<path fill="none" stroke="#000000" d="M319.6997,-931.702C398.1707,-951.3451 590.4034,-999.4655 695.974,-1025.8922"/>
</g>
<!-- config_yum -->
<g id="node13" class="node">
<title>config_yum</title>
<ellipse fill="none" stroke="#000000" cx="1332.9965" cy="-1152" rx="195.007" ry="18"/>
<text text-anchor="middle" x="1332.9965" y="-1147.8" font-family="Times,serif" font-size="14.00" fill="#000000">Ensure package manager repositories are configured</text>
</g>
<!-- control_4_5&#45;&#45;config_yum -->
<g id="edge12" class="edge">
<title>control_4_5&#45;&#45;config_yum</title>
<path fill="none" stroke="#000000" d="M824.1028,-1062.079C883.6305,-1080.6708 981.0003,-1109.0888 1066.9775,-1125 1103.3803,-1131.7368 1142.9187,-1136.8965 1180.1063,-1140.808"/>
</g>
<!-- yum_gpg -->
<g id="node14" class="node">
<title>yum_gpg</title>
<ellipse fill="none" stroke="#000000" cx="1332.9965" cy="-1098" rx="126.0524" ry="18"/>
<text text-anchor="middle" x="1332.9965" y="-1093.8" font-family="Times,serif" font-size="14.00" fill="#000000">Ensure GPG keys are configured</text>
</g>
<!-- control_4_5&#45;&#45;yum_gpg -->
<g id="edge13" class="edge">
<title>control_4_5&#45;&#45;yum_gpg</title>
<path fill="none" stroke="#000000" d="M956.7359,-1062.0187C1047.1812,-1070.6679 1152.1378,-1080.7047 1228.183,-1087.9768"/>
</g>
<!-- yum_gpg_check -->
<g id="node15" class="node">
<title>yum_gpg_check</title>
<ellipse fill="none" stroke="#000000" cx="1332.9965" cy="-1044" rx="144.3765" ry="18"/>
<text text-anchor="middle" x="1332.9965" y="-1039.8" font-family="Times,serif" font-size="14.00" fill="#000000">Ensure gpgcheck is globally activated</text>
</g>
<!-- control_4_5&#45;&#45;yum_gpg_check -->
<g id="edge14" class="edge">
<title>control_4_5&#45;&#45;yum_gpg_check</title>
<path fill="none" stroke="#000000" d="M990.6794,-1044C1057.1898,-1044 1128.3554,-1044 1188.4746,-1044"/>
</g>
<!-- yum_security_update -->
<g id="node16" class="node">
<title>yum_security_update</title>
<ellipse fill="none" stroke="#000000" cx="1332.9965" cy="-990" rx="257.7751" ry="18"/>
<text text-anchor="middle" x="1332.9965" y="-985.8" font-family="Times,serif" font-size="14.00" fill="#000000">Ensure updates, patches, and additional security software are installed</text>
</g>
<!-- control_4_5&#45;&#45;yum_security_update -->
<g id="edge15" class="edge">
<title>control_4_5&#45;&#45;yum_security_update</title>
<path fill="none" stroke="#000000" d="M956.7359,-1025.9813C1029.5412,-1019.019 1111.7493,-1011.1575 1180.7114,-1004.5628"/>
</g>
<!-- control_5_1 -->
<g id="node18" class="node">
<title>control_5_1</title>
<polygon fill="none" stroke="#000000" points="967.1875,-792 569.4355,-792 569.4355,-756 967.1875,-756 967.1875,-792"/>
<text text-anchor="middle" x="768.3115" y="-769.8" font-family="Times,serif" font-size="14.00" fill="#000000">Control 5.1: Minimize And Sparingly Use Administrative Privileges</text>
</g>
<!-- control_5&#45;&#45;control_5_1 -->
<g id="edge17" class="edge">
<title>control_5&#45;&#45;control_5_1</title>
<path fill="none" stroke="#000000" d="M319.6997,-748.9418C372.0858,-751.8679 475.1723,-757.6261 569.3283,-762.8853"/>
</g>
<!-- bootloader_perms -->
<g id="node19" class="node">
<title>bootloader_perms</title>
<ellipse fill="none" stroke="#000000" cx="1332.9965" cy="-936" rx="207.6383" ry="18"/>
<text text-anchor="middle" x="1332.9965" y="-931.8" font-family="Times,serif" font-size="14.00" fill="#000000">Ensure permissions on bootloader config are configured</text>
</g>
<!-- control_5_1&#45;&#45;bootloader_perms -->
<g id="edge18" class="edge">
<title>control_5_1&#45;&#45;bootloader_perms</title>
<path fill="none" stroke="#000000" d="M799.3128,-792.1099C852.2233,-822.0626 964.2239,-881.3529 1066.9775,-909 1095.8909,-916.7795 1127.1216,-922.3528 1157.6665,-926.3378"/>
</g>
<!-- bootloader_passwd -->
<g id="node20" class="node">
<title>bootloader_passwd</title>
<ellipse fill="none" stroke="#000000" cx="1332.9965" cy="-882" rx="130.4045" ry="18"/>
<text text-anchor="middle" x="1332.9965" y="-877.8" font-family="Times,serif" font-size="14.00" fill="#000000">Ensure bootloader password is set</text>
</g>
<!-- control_5_1&#45;&#45;bootloader_passwd -->
<g id="edge19" class="edge">
<title>control_5_1&#45;&#45;bootloader_passwd</title>
<path fill="none" stroke="#000000" d="M824.1028,-792.079C883.6305,-810.6708 981.0003,-839.0888 1066.9775,-855 1115.1341,-863.912 1168.7782,-870.0641 1215.2083,-874.2175"/>
</g>
<!-- single_user_mode_auth -->
<g id="node21" class="node">
<title>single_user_mode_auth</title>
<ellipse fill="none" stroke="#000000" cx="1332.9965" cy="-828" rx="193.1045" ry="18"/>
<text text-anchor="middle" x="1332.9965" y="-823.8" font-family="Times,serif" font-size="14.00" fill="#000000">Ensure authentication required for single user mode</text>
</g>
<!-- control_5_1&#45;&#45;single_user_mode_auth -->
<g id="edge20" class="edge">
<title>control_5_1&#45;&#45;single_user_mode_auth</title>
<path fill="none" stroke="#000000" d="M956.7359,-792.0187C1035.635,-799.5638 1125.5768,-808.1648 1197.7362,-815.0653"/>
</g>
<!-- etc_motd_perms -->
<g id="node22" class="node">
<title>etc_motd_perms</title>
<ellipse fill="none" stroke="#000000" cx="1332.9965" cy="-774" rx="178.6646" ry="18"/>
<text text-anchor="middle" x="1332.9965" y="-769.8" font-family="Times,serif" font-size="14.00" fill="#000000">Ensure permissions on /etc/motd are configured</text>
</g>
<!-- control_5_1&#45;&#45;etc_motd_perms -->
<g id="edge21" class="edge">
<title>control_5_1&#45;&#45;etc_motd_perms</title>
<path fill="none" stroke="#000000" d="M967.3983,-774C1028.2056,-774 1094.671,-774 1154.0555,-774"/>
</g>
<!-- etc_issue_perms -->
<g id="node23" class="node">
<title>etc_issue_perms</title>
<ellipse fill="none" stroke="#000000" cx="1332.9965" cy="-720" rx="178.18" ry="18"/>
<text text-anchor="middle" x="1332.9965" y="-715.8" font-family="Times,serif" font-size="14.00" fill="#000000">Ensure permissions on /etc/issue are configured</text>
</g>
<!-- control_5_1&#45;&#45;etc_issue_perms -->
<g id="edge22" class="edge">
<title>control_5_1&#45;&#45;etc_issue_perms</title>
<path fill="none" stroke="#000000" d="M956.7359,-755.9813C1037.7197,-748.2369 1130.3376,-739.38 1203.4183,-732.3914"/>
</g>
<!-- etc_issuenet_perms -->
<g id="node24" class="node">
<title>etc_issuenet_perms</title>
<ellipse fill="none" stroke="#000000" cx="1332.9965" cy="-666" rx="266.0379" ry="18"/>
<text text-anchor="middle" x="1332.9965" y="-661.8" font-family="Times,serif" font-size="14.00" fill="#000000">1.7.1.6 Ensure permissions on /etc/issue.net are configured (Not Scored)</text>
</g>
<!-- control_5_1&#45;&#45;etc_issuenet_perms -->
<g id="edge23" class="edge">
<title>control_5_1&#45;&#45;etc_issuenet_perms</title>
<path fill="none" stroke="#000000" d="M824.1028,-755.921C883.6305,-737.3292 981.0003,-708.9112 1066.9775,-693 1096.3051,-687.5725 1127.668,-683.1687 1158.1971,-679.6166"/>
</g>
<!-- control_6_3 -->
<g id="node26" class="node">
<title>control_6_3</title>
<polygon fill="none" stroke="#000000" points="1031.1437,-630 505.4794,-630 505.4794,-594 1031.1437,-594 1031.1437,-630"/>
<text text-anchor="middle" x="768.3115" y="-607.8" font-family="Times,serif" font-size="14.00" fill="#000000">Control 6.3: Ensure Audit Logging Systems Are Not Subject To Loss (i.e. rotation/archive)</text>
</g>
<!-- control_6&#45;&#45;control_6_3 -->
<g id="edge25" class="edge">
<title>control_6&#45;&#45;control_6_3</title>
<path fill="none" stroke="#000000" d="M319.6997,-637.0582C360.3963,-634.785 431.6912,-630.8027 505.6268,-626.6728"/>
</g>
<!-- var_log_partition -->
<g id="node27" class="node">
<title>var_log_partition</title>
<ellipse fill="none" stroke="#000000" cx="1332.9965" cy="-612" rx="162.7183" ry="18"/>
<text text-anchor="middle" x="1332.9965" y="-607.8" font-family="Times,serif" font-size="14.00" fill="#000000">Ensure separate partition exists for /var/log</text>
</g>
<!-- control_6_3&#45;&#45;var_log_partition -->
<g id="edge26" class="edge">
<title>control_6_3&#45;&#45;var_log_partition</title>
<path fill="none" stroke="#000000" d="M1031.229,-612C1078.5677,-612 1126.638,-612 1170.0832,-612"/>
</g>
<!-- var_log_audit_partition -->
<g id="node28" class="node">
<title>var_log_audit_partition</title>
<ellipse fill="none" stroke="#000000" cx="1332.9965" cy="-558" rx="182.9978" ry="18"/>
<text text-anchor="middle" x="1332.9965" y="-553.8" font-family="Times,serif" font-size="14.00" fill="#000000">Ensure separate partition exists for /var/log/audit</text>
</g>
<!-- control_6_3&#45;&#45;var_log_audit_partition -->
<g id="edge27" class="edge">
<title>control_6_3&#45;&#45;var_log_audit_partition</title>
<path fill="none" stroke="#000000" d="M956.7359,-593.9813C1037.0783,-586.2982 1128.8711,-577.5202 1201.6781,-570.5578"/>
</g>
<!-- removable_media_noexec -->
<g id="node30" class="node">
<title>removable_media_noexec</title>
<ellipse fill="none" stroke="#000000" cx="768.3115" cy="-558" rx="208.5653" ry="18"/>
<text text-anchor="middle" x="768.3115" y="-553.8" font-family="Times,serif" font-size="14.00" fill="#000000">Ensure noexec option set on removable media partitions</text>
</g>
<!-- control_8&#45;&#45;removable_media_noexec -->
<g id="edge29" class="edge">
<title>control_8&#45;&#45;removable_media_noexec</title>
<path fill="none" stroke="#000000" d="M375.572,-536.0626C436.6697,-539.4754 519.2638,-544.0889 592.9447,-548.2045"/>
</g>
<!-- control_8_3 -->
<g id="node31" class="node">
<title>control_8_3</title>
<polygon fill="none" stroke="#000000" points="929.3086,-522 607.3145,-522 607.3145,-486 929.3086,-486 929.3086,-522"/>
<text text-anchor="middle" x="768.3115" y="-499.8" font-family="Times,serif" font-size="14.00" fill="#000000">Control 8.3: Limit Use Of External Devices (i.e. USB)</text>
</g>
<!-- control_8&#45;&#45;control_8_3 -->
<g id="edge30" class="edge">
<title>control_8&#45;&#45;control_8_3</title>
<path fill="none" stroke="#000000" d="M375.572,-525.9374C440.6336,-522.3032 530.0712,-517.3074 607.1644,-513.0012"/>
</g>
<!-- control_8_4 -->
<g id="node33" class="node">
<title>control_8_4</title>
<ellipse fill="none" stroke="#000000" cx="768.3115" cy="-450" rx="221.1879" ry="18"/>
<text text-anchor="middle" x="768.3115" y="-445.8" font-family="Times,serif" font-size="14.00" fill="#000000">Enable Anti&#45;exploitation Features (i.e. DEP, ASLR, EMET)</text>
</g>
<!-- control_8&#45;&#45;control_8_4 -->
<g id="edge32" class="edge">
<title>control_8&#45;&#45;control_8_4</title>
<path fill="none" stroke="#000000" d="M348.6716,-512.94C392.493,-501.1328 452.1977,-486.2403 505.6455,-477 539.4115,-471.1624 575.8535,-466.4318 610.5298,-462.6596"/>
</g>
<!-- disable_automounting -->
<g id="node32" class="node">
<title>disable_automounting</title>
<ellipse fill="none" stroke="#000000" cx="1332.9965" cy="-504" rx="90.3729" ry="18"/>
<text text-anchor="middle" x="1332.9965" y="-499.8" font-family="Times,serif" font-size="14.00" fill="#000000">Disable Automounting</text>
</g>
<!-- control_8_3&#45;&#45;disable_automounting -->
<g id="edge31" class="edge">
<title>control_8_3&#45;&#45;disable_automounting</title>
<path fill="none" stroke="#000000" d="M929.3719,-504C1030.9169,-504 1158.3034,-504 1242.5007,-504"/>
</g>
<!-- no_execute -->
<g id="node34" class="node">
<title>no_execute</title>
<ellipse fill="none" stroke="#000000" cx="1332.9965" cy="-450" rx="131.3735" ry="18"/>
<text text-anchor="middle" x="1332.9965" y="-445.8" font-family="Times,serif" font-size="14.00" fill="#000000">Ensure XD/NX support is enabled</text>
</g>
<!-- control_8_4&#45;&#45;no_execute -->
<g id="edge33" class="edge">
<title>control_8_4&#45;&#45;no_execute</title>
<path fill="none" stroke="#000000" d="M989.8693,-450C1061.399,-450 1138.3929,-450 1201.2864,-450"/>
</g>
<!-- aslr -->
<g id="node35" class="node">
<title>aslr</title>
<ellipse fill="none" stroke="#000000" cx="1332.9965" cy="-396" rx="231.2497" ry="18"/>
<text text-anchor="middle" x="1332.9965" y="-391.8" font-family="Times,serif" font-size="14.00" fill="#000000">Ensure address space layout randomization (ASLR) is enabled</text>
</g>
<!-- control_8_4&#45;&#45;aslr -->
<g id="edge34" class="edge">
<title>control_8_4&#45;&#45;aslr</title>
<path fill="none" stroke="#000000" d="M911.9008,-436.2688C996.04,-428.2227 1102.0582,-418.0843 1186.6662,-409.9934"/>
</g>
<!-- control_9_1 -->
<g id="node37" class="node">
<title>control_9_1</title>
<polygon fill="none" stroke="#000000" points="929.7327,-252 606.8903,-252 606.8903,-216 929.7327,-216 929.7327,-252"/>
<text text-anchor="middle" x="768.3115" y="-229.8" font-family="Times,serif" font-size="14.00" fill="#000000">Control 9.1: Limit Open Ports, Protocols, and Services</text>
</g>
<!-- control_9&#45;&#45;control_9_1 -->
<g id="edge36" class="edge">
<title>control_9&#45;&#45;control_9_1</title>
<path fill="none" stroke="#000000" d="M319.6997,-334.2329C396.1142,-317.1597 580.4059,-275.9836 687.499,-252.0559"/>
</g>
<!-- chargen_disabled -->
<g id="node38" class="node">
<title>chargen_disabled</title>
<ellipse fill="none" stroke="#000000" cx="1332.9965" cy="-342" rx="151.7478" ry="18"/>
<text text-anchor="middle" x="1332.9965" y="-337.8" font-family="Times,serif" font-size="14.00" fill="#000000">Ensure chargen services are not enabled</text>
</g>
<!-- control_9_1&#45;&#45;chargen_disabled -->
<g id="edge37" class="edge">
<title>control_9_1&#45;&#45;chargen_disabled</title>
<path fill="none" stroke="#000000" d="M824.1028,-252.079C883.6305,-270.6708 981.0003,-299.0888 1066.9775,-315 1110.4554,-323.0461 1158.4063,-328.8426 1201.4828,-332.9496"/>
</g>
<!-- daytime_disabled -->
<g id="node39" class="node">
<title>daytime_disabled</title>
<ellipse fill="none" stroke="#000000" cx="1332.9965" cy="-288" rx="152.0608" ry="18"/>
<text text-anchor="middle" x="1332.9965" y="-283.8" font-family="Times,serif" font-size="14.00" fill="#000000">Ensure daytime services are not enabled</text>
</g>
<!-- control_9_1&#45;&#45;daytime_disabled -->
<g id="edge38" class="edge">
<title>control_9_1&#45;&#45;daytime_disabled</title>
<path fill="none" stroke="#000000" d="M929.7496,-249.4381C1020.5257,-258.1189 1131.8586,-268.7655 1214.5263,-276.6709"/>
</g>
<!-- discard_disabled -->
<g id="node40" class="node">
<title>discard_disabled</title>
<ellipse fill="none" stroke="#000000" cx="1332.9965" cy="-234" rx="149.1621" ry="18"/>
<text text-anchor="middle" x="1332.9965" y="-229.8" font-family="Times,serif" font-size="14.00" fill="#000000">Ensure discard services are not enabled</text>
</g>
<!-- control_9_1&#45;&#45;discard_disabled -->
<g id="edge39" class="edge">
<title>control_9_1&#45;&#45;discard_disabled</title>
<path fill="none" stroke="#000000" d="M929.7496,-234C1009.6065,-234 1105.3722,-234 1183.5361,-234"/>
</g>
<!-- echo_disabled -->
<g id="node41" class="node">
<title>echo_disabled</title>
<ellipse fill="none" stroke="#000000" cx="1332.9965" cy="-180" rx="140.475" ry="18"/>
<text text-anchor="middle" x="1332.9965" y="-175.8" font-family="Times,serif" font-size="14.00" fill="#000000">Ensure echo services are not enabled</text>
</g>
<!-- control_9_1&#45;&#45;echo_disabled -->
<g id="edge40" class="edge">
<title>control_9_1&#45;&#45;echo_disabled</title>
<path fill="none" stroke="#000000" d="M929.7496,-218.5619C1022.6444,-209.6785 1137.0667,-198.7365 1220.267,-190.7802"/>
</g>
<!-- time_disabled -->
<g id="node42" class="node">
<title>time_disabled</title>
<ellipse fill="none" stroke="#000000" cx="1332.9965" cy="-126" rx="139.5232" ry="18"/>
<text text-anchor="middle" x="1332.9965" y="-121.8" font-family="Times,serif" font-size="14.00" fill="#000000">Ensure time services are not enabled</text>
</g>
<!-- control_9_1&#45;&#45;time_disabled -->
<g id="edge41" class="edge">
<title>control_9_1&#45;&#45;time_disabled</title>
<path fill="none" stroke="#000000" d="M929.6466,-239.5928C964.9421,-234.9323 1000.7494,-225.2272 1030.9775,-207 1055.6788,-192.1055 1042.2667,-167.8787 1066.9775,-153 1110.3254,-126.8997 1164.9863,-118.1306 1213.468,-116.6658"/>
</g>
<!-- tftp_disabled -->
<g id="node43" class="node">
<title>tftp_disabled</title>
<ellipse fill="none" stroke="#000000" cx="1332.9965" cy="-72" rx="124.0982" ry="18"/>
<text text-anchor="middle" x="1332.9965" y="-67.8" font-family="Times,serif" font-size="14.00" fill="#000000">Ensure tftp server is not enabled</text>
</g>
<!-- control_9_1&#45;&#45;tftp_disabled -->
<g id="edge42" class="edge">
<title>control_9_1&#45;&#45;tftp_disabled</title>
<path fill="none" stroke="#000000" d="M929.8243,-245.7447C966.2091,-241.1067 1002.4526,-229.8667 1030.9775,-207 1070.4552,-175.3532 1027.4796,-130.6215 1066.9775,-99 1117.7114,-58.3832 1192.514,-54.1161 1249.887,-58.5885"/>
</g>
<!-- xinetd_disabled -->
<g id="node44" class="node">
<title>xinetd_disabled</title>
<ellipse fill="none" stroke="#000000" cx="1332.9965" cy="-18" rx="110.1169" ry="18"/>
<text text-anchor="middle" x="1332.9965" y="-13.8" font-family="Times,serif" font-size="14.00" fill="#000000">Ensure xinetd is not enabled</text>
</g>
<!-- control_9_1&#45;&#45;xinetd_disabled -->
<g id="edge43" class="edge">
<title>control_9_1&#45;&#45;xinetd_disabled</title>
<path fill="none" stroke="#000000" d="M929.8447,-248.0072C966.7595,-243.4546 1003.2404,-231.6869 1030.9775,-207 1086.0725,-157.9638 1011.8512,-94.0009 1066.9775,-45 1119.1078,1.3377 1201.6811,2.5835 1261.0054,-4.2942"/>
</g>
<!-- disbale_fs -->
<g id="node46" class="node">
<title>disbale_fs</title>
<ellipse fill="none" stroke="#000000" cx="768.3115" cy="-180" rx="105.8078" ry="18"/>
<text text-anchor="middle" x="768.3115" y="-175.8" font-family="Times,serif" font-size="14.00" fill="#000000">Disable unused filesystems</text>
</g>
<!-- control_13&#45;&#45;disbale_fs -->
<g id="edge45" class="edge">
<title>control_13&#45;&#45;disbale_fs</title>
<path fill="none" stroke="#000000" d="M370.5193,-157.7804C453.6307,-162.4228 579.789,-169.4696 667.6717,-174.3785"/>
</g>
<!-- sticky_bit -->
<g id="node47" class="node">
<title>sticky_bit</title>
<ellipse fill="none" stroke="#000000" cx="768.3115" cy="-126" rx="207.6297" ry="18"/>
<text text-anchor="middle" x="768.3115" y="-121.8" font-family="Times,serif" font-size="14.00" fill="#000000">Ensure sticky bit is set on all world_writable directories</text>
</g>
<!-- control_13&#45;&#45;sticky_bit -->
<g id="edge46" class="edge">
<title>control_13&#45;&#45;sticky_bit</title>
<path fill="none" stroke="#000000" d="M370.5193,-148.2196C432.2766,-144.77 517.8022,-139.9928 593.7308,-135.7516"/>
</g>
<!-- core_dump -->
<g id="node48" class="node">
<title>core_dump</title>
<ellipse fill="none" stroke="#000000" cx="768.3115" cy="-72" rx="126.0092" ry="18"/>
<text text-anchor="middle" x="768.3115" y="-67.8" font-family="Times,serif" font-size="14.00" fill="#000000">Ensure core dumps are restricted</text>
</g>
<!-- control_13&#45;&#45;core_dump -->
<g id="edge47" class="edge">
<title>control_13&#45;&#45;core_dump</title>
<path fill="none" stroke="#000000" d="M348.6716,-134.94C392.493,-123.1328 452.1977,-108.2403 505.6455,-99 554.5441,-90.5462 609.0546,-84.4141 655.6878,-80.1518"/>
</g>
</g>
</svg>
