<?xml version="1.0" encoding="UTF-8" standalone="no"?>
<!DOCTYPE svg PUBLIC "-//W3C//DTD SVG 1.1//EN"
 "http://www.w3.org/Graphics/SVG/1.1/DTD/svg11.dtd">
<!-- Generated by graphviz version 2.40.1 (20161225.0304)
 -->
<!-- Title: controls Pages: 1 -->
<svg width="1304pt" height="854pt"
 viewBox="0.00 0.00 1304.00 854.00" xmlns="http://www.w3.org/2000/svg" xmlns:xlink="http://www.w3.org/1999/xlink">
<g id="graph0" class="graph" transform="scale(1 1) rotate(0) translate(4 850)">
<title>controls</title>
<polygon fill="#ffffff" stroke="transparent" points="-4,4 -4,-850 1299.9975,-850 1299.9975,4 -4,4"/>
<!-- controls -->
<g id="node1" class="node">
<title>controls</title>
<polygon fill="none" stroke="#000000" points="64.3417,-387 -.1142,-387 -.1142,-351 64.3417,-351 64.3417,-387"/>
<text text-anchor="middle" x="32.1138" y="-364.8" font-family="Times,serif" font-size="14.00" fill="#000000">Controls</text>
</g>
<!-- control_2 -->
<g id="node2" class="node">
<title>control_2</title>
<polygon fill="none" stroke="#000000" points="547.8118,-765 177.9753,-765 177.9753,-729 547.8118,-729 547.8118,-765"/>
<text text-anchor="middle" x="362.8936" y="-742.8" font-family="Times,serif" font-size="14.00" fill="#000000">Control 2: Inventory of Authorized and Unauthorized Software</text>
</g>
<!-- controls&#45;&#45;control_2 -->
<g id="edge1" class="edge">
<title>controls&#45;&#45;control_2</title>
<path fill="none" stroke="#000000" d="M34.5382,-387.1362C42.0979,-441.2756 66.7523,-600.3605 100.2275,-639 141.714,-686.8867 207.7325,-713.911 263.2023,-728.9514"/>
</g>
<!-- control_3_5 -->
<g id="node6" class="node">
<title>control_3_5</title>
<polygon fill="none" stroke="#000000" points="544.877,-630 180.9102,-630 180.9102,-594 544.877,-594 544.877,-630"/>
<text text-anchor="middle" x="362.8936" y="-607.8" font-family="Times,serif" font-size="14.00" fill="#000000">Control 3.5: Use File Integrity Tools For Critical System Files</text>
</g>
<!-- controls&#45;&#45;control_3_5 -->
<g id="edge5" class="edge">
<title>controls&#45;&#45;control_3_5</title>
<path fill="none" stroke="#000000" d="M36.8348,-387.2428C45.1004,-415.8018 64.7797,-471.1876 100.2275,-504 150.342,-550.3885 223.1129,-578.1946 279.3568,-593.9472"/>
</g>
<!-- control_4_5 -->
<g id="node9" class="node">
<title>control_4_5</title>
<polygon fill="none" stroke="#000000" points="584.9395,-495 140.8477,-495 140.8477,-459 584.9395,-459 584.9395,-495"/>
<text text-anchor="middle" x="362.8936" y="-472.8" font-family="Times,serif" font-size="14.00" fill="#000000">Control 4.5: Use Automated Patch Management And Software Update Tools</text>
</g>
<!-- controls&#45;&#45;control_4_5 -->
<g id="edge8" class="edge">
<title>controls&#45;&#45;control_4_5</title>
<path fill="none" stroke="#000000" d="M64.4861,-382.4318C75.7299,-386.9369 88.4679,-391.8632 100.2275,-396 167.6399,-419.7143 246.064,-443.4013 299.5497,-458.9783"/>
</g>
<!-- control_5_1 -->
<g id="node13" class="node">
<title>control_5_1</title>
<polygon fill="none" stroke="#000000" points="561.7696,-387 164.0176,-387 164.0176,-351 561.7696,-351 561.7696,-387"/>
<text text-anchor="middle" x="362.8936" y="-364.8" font-family="Times,serif" font-size="14.00" fill="#000000">Control 5.1: Minimize And Sparingly Use Administrative Privileges</text>
</g>
<!-- controls&#45;&#45;control_5_1 -->
<g id="edge12" class="edge">
<title>controls&#45;&#45;control_5_1</title>
<path fill="none" stroke="#000000" d="M64.4326,-369C89.061,-369 125.2465,-369 163.9931,-369"/>
</g>
<!-- control_6_3 -->
<g id="node16" class="node">
<title>control_6_3</title>
<polygon fill="none" stroke="#000000" points="625.7257,-306 100.0614,-306 100.0614,-270 625.7257,-270 625.7257,-306"/>
<text text-anchor="middle" x="362.8936" y="-283.8" font-family="Times,serif" font-size="14.00" fill="#000000">Control 6.3: Ensure Audit Logging Systems Are Not Subject To Loss (i.e. rotation/archive)</text>
</g>
<!-- controls&#45;&#45;control_6_3 -->
<g id="edge15" class="edge">
<title>controls&#45;&#45;control_6_3</title>
<path fill="none" stroke="#000000" d="M64.274,-354.9155C75.5009,-350.358 88.2823,-345.5656 100.2275,-342 149.9682,-327.1526 206.2081,-314.9948 253.8499,-306.0003"/>
</g>
<!-- control_8 -->
<g id="node19" class="node">
<title>control_8</title>
<polygon fill="none" stroke="#000000" points="453.6251,-198 272.162,-198 272.162,-162 453.6251,-162 453.6251,-198"/>
<text text-anchor="middle" x="362.8936" y="-175.8" font-family="Times,serif" font-size="14.00" fill="#000000">Control 8: Malware Defenses</text>
</g>
<!-- controls&#45;&#45;control_8 -->
<g id="edge18" class="edge">
<title>controls&#45;&#45;control_8</title>
<path fill="none" stroke="#000000" d="M38.8374,-350.9015C48.6748,-326.8741 69.2541,-284.7236 100.2275,-261 149.9514,-222.9147 217.7324,-202.5903 271.9846,-191.826"/>
</g>
<!-- control_13 -->
<g id="node23" class="node">
<title>control_13</title>
<polygon fill="none" stroke="#000000" points="448.5352,-90 277.2519,-90 277.2519,-54 448.5352,-54 448.5352,-90"/>
<text text-anchor="middle" x="362.8936" y="-67.8" font-family="Times,serif" font-size="14.00" fill="#000000">Control 13: Data Protection</text>
</g>
<!-- controls&#45;&#45;control_13 -->
<g id="edge22" class="edge">
<title>controls&#45;&#45;control_13</title>
<path fill="none" stroke="#000000" d="M35.6061,-350.7663C44.9003,-304.0158 71.499,-181.5467 100.2275,-153 147.1106,-106.4136 220.1466,-86.5266 277.3145,-78.0852"/>
</g>
<!-- tmp_noexec -->
<g id="node3" class="node">
<title>tmp_noexec</title>
<ellipse fill="none" stroke="#000000" cx="870.3421" cy="-828" rx="160.3311" ry="18"/>
<text text-anchor="middle" x="870.3421" y="-823.8" font-family="Times,serif" font-size="14.00" fill="#000000">Ensure noexec option set on /tmp partition</text>
</g>
<!-- control_2&#45;&#45;tmp_noexec -->
<g id="edge2" class="edge">
<title>control_2&#45;&#45;tmp_noexec</title>
<path fill="none" stroke="#000000" d="M455.8511,-765.0492C514.6896,-776.1653 592.4354,-790.2884 661.5596,-801 693.6141,-805.9672 728.5362,-810.7354 760.4851,-814.8456"/>
</g>
<!-- var_tmp_noexec -->
<g id="node4" class="node">
<title>var_tmp_noexec</title>
<ellipse fill="none" stroke="#000000" cx="870.3421" cy="-774" rx="174.3288" ry="18"/>
<text text-anchor="middle" x="870.3421" y="-769.8" font-family="Times,serif" font-size="14.00" fill="#000000">Ensure noexec option set on /var/tmp partition</text>
</g>
<!-- control_2&#45;&#45;var_tmp_noexec -->
<g id="edge3" class="edge">
<title>control_2&#45;&#45;var_tmp_noexec</title>
<path fill="none" stroke="#000000" d="M547.8888,-756.8431C602.8401,-759.7669 662.4432,-762.9382 715.2836,-765.7497"/>
</g>
<!-- dev_shm_noexec -->
<g id="node5" class="node">
<title>dev_shm_noexec</title>
<ellipse fill="none" stroke="#000000" cx="870.3421" cy="-720" rx="176.7514" ry="18"/>
<text text-anchor="middle" x="870.3421" y="-715.8" font-family="Times,serif" font-size="14.00" fill="#000000">Ensure noexec option set on /dev/shm partition</text>
</g>
<!-- control_2&#45;&#45;dev_shm_noexec -->
<g id="edge4" class="edge">
<title>control_2&#45;&#45;dev_shm_noexec</title>
<path fill="none" stroke="#000000" d="M547.8888,-737.1569C602.2736,-734.2632 661.2148,-731.1271 713.6472,-728.3373"/>
</g>
<!-- install_AIDE -->
<g id="node7" class="node">
<title>install_AIDE</title>
<ellipse fill="none" stroke="#000000" cx="870.3421" cy="-666" rx="97.5893" ry="18"/>
<text text-anchor="middle" x="870.3421" y="-661.8" font-family="Times,serif" font-size="14.00" fill="#000000">Ensure AIDE is installed</text>
</g>
<!-- control_3_5&#45;&#45;install_AIDE -->
<g id="edge6" class="edge">
<title>control_3_5&#45;&#45;install_AIDE</title>
<path fill="none" stroke="#000000" d="M532.2192,-630.0187C617.2439,-639.0666 716.5389,-649.6331 785.434,-656.9645"/>
</g>
<!-- integrity_check -->
<g id="node8" class="node">
<title>integrity_check</title>
<ellipse fill="none" stroke="#000000" cx="870.3421" cy="-612" rx="178.1628" ry="18"/>
<text text-anchor="middle" x="870.3421" y="-607.8" font-family="Times,serif" font-size="14.00" fill="#000000">Ensure filesystem integrity is regularly checked</text>
</g>
<!-- control_3_5&#45;&#45;integrity_check -->
<g id="edge7" class="edge">
<title>control_3_5&#45;&#45;integrity_check</title>
<path fill="none" stroke="#000000" d="M545.0189,-612C592.7755,-612 644.2181,-612 691.786,-612"/>
</g>
<!-- config_yum -->
<g id="node10" class="node">
<title>config_yum</title>
<ellipse fill="none" stroke="#000000" cx="870.3421" cy="-558" rx="195.007" ry="18"/>
<text text-anchor="middle" x="870.3421" y="-553.8" font-family="Times,serif" font-size="14.00" fill="#000000">Ensure package manager repositories are configured</text>
</g>
<!-- control_4_5&#45;&#45;config_yum -->
<g id="edge9" class="edge">
<title>control_4_5&#45;&#45;config_yum</title>
<path fill="none" stroke="#000000" d="M455.8511,-495.0492C514.6896,-506.1653 592.4354,-520.2884 661.5596,-531 690.6343,-535.5055 722.0684,-539.8472 751.503,-543.6827"/>
</g>
<!-- yum_gpg -->
<g id="node11" class="node">
<title>yum_gpg</title>
<ellipse fill="none" stroke="#000000" cx="870.3421" cy="-504" rx="126.0524" ry="18"/>
<text text-anchor="middle" x="870.3421" y="-499.8" font-family="Times,serif" font-size="14.00" fill="#000000">Ensure GPG keys are configured</text>
</g>
<!-- control_4_5&#45;&#45;yum_gpg -->
<g id="edge10" class="edge">
<title>control_4_5&#45;&#45;yum_gpg</title>
<path fill="none" stroke="#000000" d="M585.0987,-488.823C642.5287,-491.8786 702.1467,-495.0508 751.9368,-497.7"/>
</g>
<!-- yum_gpg_check -->
<g id="node12" class="node">
<title>yum_gpg_check</title>
<ellipse fill="none" stroke="#000000" cx="870.3421" cy="-450" rx="144.3765" ry="18"/>
<text text-anchor="middle" x="870.3421" y="-445.8" font-family="Times,serif" font-size="14.00" fill="#000000">Ensure gpgcheck is globally activated</text>
</g>
<!-- control_4_5&#45;&#45;yum_gpg_check -->
<g id="edge11" class="edge">
<title>control_4_5&#45;&#45;yum_gpg_check</title>
<path fill="none" stroke="#000000" d="M585.0987,-465.177C637.0655,-462.412 690.8238,-459.5517 737.4711,-457.0697"/>
</g>
<!-- bootloader_perms -->
<g id="node14" class="node">
<title>bootloader_perms</title>
<ellipse fill="none" stroke="#000000" cx="870.3421" cy="-396" rx="207.6383" ry="18"/>
<text text-anchor="middle" x="870.3421" y="-391.8" font-family="Times,serif" font-size="14.00" fill="#000000">Ensure permissions on bootloader config are configured</text>
</g>
<!-- control_5_1&#45;&#45;bootloader_perms -->
<g id="edge13" class="edge">
<title>control_5_1&#45;&#45;bootloader_perms</title>
<path fill="none" stroke="#000000" d="M561.9942,-379.5936C605.31,-381.8983 650.8555,-384.3217 693.2509,-386.5774"/>
</g>
<!-- bootloader_passwd -->
<g id="node15" class="node">
<title>bootloader_passwd</title>
<ellipse fill="none" stroke="#000000" cx="870.3421" cy="-342" rx="130.4045" ry="18"/>
<text text-anchor="middle" x="870.3421" y="-337.8" font-family="Times,serif" font-size="14.00" fill="#000000">Ensure bootloader password is set</text>
</g>
<!-- control_5_1&#45;&#45;bootloader_passwd -->
<g id="edge14" class="edge">
<title>control_5_1&#45;&#45;bootloader_passwd</title>
<path fill="none" stroke="#000000" d="M561.9942,-358.4064C624.8854,-355.0601 692.4771,-351.4637 748.3025,-348.4934"/>
</g>
<!-- var_log_partition -->
<g id="node17" class="node">
<title>var_log_partition</title>
<ellipse fill="none" stroke="#000000" cx="870.3421" cy="-288" rx="162.7183" ry="18"/>
<text text-anchor="middle" x="870.3421" y="-283.8" font-family="Times,serif" font-size="14.00" fill="#000000">Ensure separate partition exists for /var/log</text>
</g>
<!-- control_6_3&#45;&#45;var_log_partition -->
<g id="edge16" class="edge">
<title>control_6_3&#45;&#45;var_log_partition</title>
<path fill="none" stroke="#000000" d="M625.9076,-288C653.6898,-288 681.3233,-288 707.4733,-288"/>
</g>
<!-- var_log_audit_partition -->
<g id="node18" class="node">
<title>var_log_audit_partition</title>
<ellipse fill="none" stroke="#000000" cx="870.3421" cy="-234" rx="182.9978" ry="18"/>
<text text-anchor="middle" x="870.3421" y="-229.8" font-family="Times,serif" font-size="14.00" fill="#000000">Ensure separate partition exists for /var/log/audit</text>
</g>
<!-- control_6_3&#45;&#45;var_log_audit_partition -->
<g id="edge17" class="edge">
<title>control_6_3&#45;&#45;var_log_audit_partition</title>
<path fill="none" stroke="#000000" d="M532.2192,-269.9813C602.1124,-262.5436 681.6486,-254.0798 746.0143,-247.2303"/>
</g>
<!-- removable_media_noexec -->
<g id="node20" class="node">
<title>removable_media_noexec</title>
<ellipse fill="none" stroke="#000000" cx="870.3421" cy="-180" rx="208.5653" ry="18"/>
<text text-anchor="middle" x="870.3421" y="-175.8" font-family="Times,serif" font-size="14.00" fill="#000000">Ensure noexec option set on removable media partitions</text>
</g>
<!-- control_8&#45;&#45;removable_media_noexec -->
<g id="edge19" class="edge">
<title>control_8&#45;&#45;removable_media_noexec</title>
<path fill="none" stroke="#000000" d="M453.6152,-180C511.4861,-180 588.9766,-180 661.4317,-180"/>
</g>
<!-- control_8_3 -->
<g id="node21" class="node">
<title>control_8_3</title>
<polygon fill="none" stroke="#000000" points="1031.3392,-144 709.345,-144 709.345,-108 1031.3392,-108 1031.3392,-144"/>
<text text-anchor="middle" x="870.3421" y="-121.8" font-family="Times,serif" font-size="14.00" fill="#000000">Control 8.3: Limit Use Of External Devices (i.e. USB)</text>
</g>
<!-- control_8&#45;&#45;control_8_3 -->
<g id="edge20" class="edge">
<title>control_8&#45;&#45;control_8_3</title>
<path fill="none" stroke="#000000" d="M453.6152,-170.3459C524.4572,-162.8072 624.6994,-152.14 709.115,-143.1569"/>
</g>
<!-- disable_automounting -->
<g id="node22" class="node">
<title>disable_automounting</title>
<ellipse fill="none" stroke="#000000" cx="1205.5611" cy="-126" rx="90.3729" ry="18"/>
<text text-anchor="middle" x="1205.5611" y="-121.8" font-family="Times,serif" font-size="14.00" fill="#000000">Disable Automounting</text>
</g>
<!-- control_8_3&#45;&#45;disable_automounting -->
<g id="edge21" class="edge">
<title>control_8_3&#45;&#45;disable_automounting</title>
<path fill="none" stroke="#000000" d="M1031.5694,-126C1060.251,-126 1089.1822,-126 1114.997,-126"/>
</g>
<!-- disbale_fs -->
<g id="node24" class="node">
<title>disbale_fs</title>
<ellipse fill="none" stroke="#000000" cx="870.3421" cy="-72" rx="105.8078" ry="18"/>
<text text-anchor="middle" x="870.3421" y="-67.8" font-family="Times,serif" font-size="14.00" fill="#000000">Disable unused filesystems</text>
</g>
<!-- control_13&#45;&#45;disbale_fs -->
<g id="edge23" class="edge">
<title>control_13&#45;&#45;disbale_fs</title>
<path fill="none" stroke="#000000" d="M448.6882,-72C535.7333,-72 670.6393,-72 764.3239,-72"/>
</g>
<!-- sticky_bit -->
<g id="node25" class="node">
<title>sticky_bit</title>
<ellipse fill="none" stroke="#000000" cx="870.3421" cy="-18" rx="207.6297" ry="18"/>
<text text-anchor="middle" x="870.3421" y="-13.8" font-family="Times,serif" font-size="14.00" fill="#000000">Ensure sticky bit is set on all world_writable directories</text>
</g>
<!-- control_13&#45;&#45;sticky_bit -->
<g id="edge24" class="edge">
<title>control_13&#45;&#45;sticky_bit</title>
<path fill="none" stroke="#000000" d="M448.6882,-62.8702C528.1028,-54.4193 647.3548,-41.7291 738.7958,-31.9985"/>
</g>
</g>
</svg>
