<?xml version="1.0" encoding="UTF-8" standalone="no"?>
<!DOCTYPE svg PUBLIC "-//W3C//DTD SVG 1.1//EN"
 "http://www.w3.org/Graphics/SVG/1.1/DTD/svg11.dtd">
<!-- Generated by graphviz version 2.40.1 (20161225.0304)
 -->
<!-- Title: controls Pages: 1 -->
<svg width="1607pt" height="1124pt"
 viewBox="0.00 0.00 1607.02 1124.00" xmlns="http://www.w3.org/2000/svg" xmlns:xlink="http://www.w3.org/1999/xlink">
<g id="graph0" class="graph" transform="scale(1 1) rotate(0) translate(4 1120)">
<title>controls</title>
<polygon fill="#ffffff" stroke="transparent" points="-4,4 -4,-1120 1603.0154,-1120 1603.0154,4 -4,4"/>
<!-- controls -->
<g id="node1" class="node">
<title>controls</title>
<polygon fill="none" stroke="#000000" points="64.3417,-549 -.1142,-549 -.1142,-513 64.3417,-513 64.3417,-549"/>
<text text-anchor="middle" x="32.1138" y="-526.8" font-family="Times,serif" font-size="14.00" fill="#000000">Controls</text>
</g>
<!-- control_2 -->
<g id="node2" class="node">
<title>control_2</title>
<polygon fill="none" stroke="#000000" points="469.8547,-1035 100.0183,-1035 100.0183,-999 469.8547,-999 469.8547,-1035"/>
<text text-anchor="middle" x="284.9365" y="-1012.8" font-family="Times,serif" font-size="14.00" fill="#000000">Control 2: Inventory of Authorized and Unauthorized Software</text>
</g>
<!-- controls&#45;&#45;control_2 -->
<g id="edge1" class="edge">
<title>controls&#45;&#45;control_2</title>
<path fill="none" stroke="#000000" d="M32.9154,-549.1047C36.3633,-619.4993 52.0125,-874.1408 100.2275,-936 124.767,-967.4838 164.0794,-986.9899 200.1413,-998.9426"/>
</g>
<!-- control_3 -->
<g id="node6" class="node">
<title>control_3</title>
<polygon fill="none" stroke="#000000" points="319.7164,-927 250.1567,-927 250.1567,-891 319.7164,-891 319.7164,-927"/>
<text text-anchor="middle" x="284.9365" y="-904.8" font-family="Times,serif" font-size="14.00" fill="#000000">Control 3</text>
</g>
<!-- controls&#45;&#45;control_3 -->
<g id="edge5" class="edge">
<title>controls&#45;&#45;control_3</title>
<path fill="none" stroke="#000000" d="M36.7499,-549.2511C45.6801,-582.3955 67.3389,-653.9527 100.2275,-707 147.8036,-783.7372 226.5045,-857.8377 263.9223,-890.9453"/>
</g>
<!-- control_4 -->
<g id="node11" class="node">
<title>control_4</title>
<polygon fill="none" stroke="#000000" points="319.7164,-698 250.1567,-698 250.1567,-662 319.7164,-662 319.7164,-698"/>
<text text-anchor="middle" x="284.9365" y="-675.8" font-family="Times,serif" font-size="14.00" fill="#000000">Control 4</text>
</g>
<!-- controls&#45;&#45;control_4 -->
<g id="edge10" class="edge">
<title>controls&#45;&#45;control_4</title>
<path fill="none" stroke="#000000" d="M62.862,-549.1214C111.4214,-577.7396 205.3353,-633.0874 254.0072,-661.7719"/>
</g>
<!-- control_5 -->
<g id="node17" class="node">
<title>control_5</title>
<polygon fill="none" stroke="#000000" points="319.7164,-549 250.1567,-549 250.1567,-513 319.7164,-513 319.7164,-549"/>
<text text-anchor="middle" x="284.9365" y="-526.8" font-family="Times,serif" font-size="14.00" fill="#000000">Control 5</text>
</g>
<!-- controls&#45;&#45;control_5 -->
<g id="edge16" class="edge">
<title>controls&#45;&#45;control_5</title>
<path fill="none" stroke="#000000" d="M64.3907,-531C112.048,-531 200.8859,-531 250.0159,-531"/>
</g>
<!-- control_6 -->
<g id="node25" class="node">
<title>control_6</title>
<polygon fill="none" stroke="#000000" points="319.7164,-441 250.1567,-441 250.1567,-405 319.7164,-405 319.7164,-441"/>
<text text-anchor="middle" x="284.9365" y="-418.8" font-family="Times,serif" font-size="14.00" fill="#000000">Control 6</text>
</g>
<!-- controls&#45;&#45;control_6 -->
<g id="edge24" class="edge">
<title>controls&#45;&#45;control_6</title>
<path fill="none" stroke="#000000" d="M64.3907,-517.212C112.048,-496.854 200.8859,-458.9045 250.0159,-437.9173"/>
</g>
<!-- control_8 -->
<g id="node29" class="node">
<title>control_8</title>
<polygon fill="none" stroke="#000000" points="375.6681,-279 194.2049,-279 194.2049,-243 375.6681,-243 375.6681,-279"/>
<text text-anchor="middle" x="284.9365" y="-256.8" font-family="Times,serif" font-size="14.00" fill="#000000">Control 8: Malware Defenses</text>
</g>
<!-- controls&#45;&#45;control_8 -->
<g id="edge28" class="edge">
<title>controls&#45;&#45;control_8</title>
<path fill="none" stroke="#000000" d="M38.1504,-512.8142C47.9332,-485.2979 69.3217,-432.436 100.2275,-396 143.9057,-344.5063 211.0266,-301.8705 251.1942,-279.0358"/>
</g>
<!-- control_13 -->
<g id="node36" class="node">
<title>control_13</title>
<polygon fill="none" stroke="#000000" points="370.5782,-117 199.2949,-117 199.2949,-81 370.5782,-81 370.5782,-117"/>
<text text-anchor="middle" x="284.9365" y="-94.8" font-family="Times,serif" font-size="14.00" fill="#000000">Control 13: Data Protection</text>
</g>
<!-- controls&#45;&#45;control_13 -->
<g id="edge35" class="edge">
<title>controls&#45;&#45;control_13</title>
<path fill="none" stroke="#000000" d="M34.6099,-512.6588C42.6615,-455.411 69.2323,-281.0474 100.2275,-234 136.3921,-179.1062 202.9946,-138.7662 245.5651,-117.1048"/>
</g>
<!-- tmp_noexec -->
<g id="node3" class="node">
<title>tmp_noexec</title>
<ellipse fill="none" stroke="#000000" cx="768.3115" cy="-1098" rx="160.3311" ry="18"/>
<text text-anchor="middle" x="768.3115" y="-1093.8" font-family="Times,serif" font-size="14.00" fill="#000000">Ensure noexec option set on /tmp partition</text>
</g>
<!-- control_2&#45;&#45;tmp_noexec -->
<g id="edge2" class="edge">
<title>control_2&#45;&#45;tmp_noexec</title>
<path fill="none" stroke="#000000" d="M348.6716,-1035.06C392.493,-1046.8672 452.1977,-1061.7597 505.6455,-1071 547.5425,-1078.2433 593.5593,-1083.7822 635.211,-1087.9009"/>
</g>
<!-- var_tmp_noexec -->
<g id="node4" class="node">
<title>var_tmp_noexec</title>
<ellipse fill="none" stroke="#000000" cx="768.3115" cy="-1044" rx="174.3288" ry="18"/>
<text text-anchor="middle" x="768.3115" y="-1039.8" font-family="Times,serif" font-size="14.00" fill="#000000">Ensure noexec option set on /var/tmp partition</text>
</g>
<!-- control_2&#45;&#45;var_tmp_noexec -->
<g id="edge3" class="edge">
<title>control_2&#45;&#45;var_tmp_noexec</title>
<path fill="none" stroke="#000000" d="M469.7489,-1027.3231C517.7227,-1030.0028 568.8661,-1032.8595 615.0211,-1035.4376"/>
</g>
<!-- dev_shm_noexec -->
<g id="node5" class="node">
<title>dev_shm_noexec</title>
<ellipse fill="none" stroke="#000000" cx="768.3115" cy="-990" rx="176.7514" ry="18"/>
<text text-anchor="middle" x="768.3115" y="-985.8" font-family="Times,serif" font-size="14.00" fill="#000000">Ensure noexec option set on /dev/shm partition</text>
</g>
<!-- control_2&#45;&#45;dev_shm_noexec -->
<g id="edge4" class="edge">
<title>control_2&#45;&#45;dev_shm_noexec</title>
<path fill="none" stroke="#000000" d="M469.7489,-1006.6769C517.0564,-1004.0344 567.446,-1001.2198 613.0951,-998.67"/>
</g>
<!-- control_3_5 -->
<g id="node7" class="node">
<title>control_3_5</title>
<polygon fill="none" stroke="#000000" points="950.2949,-954 586.3281,-954 586.3281,-918 950.2949,-918 950.2949,-954"/>
<text text-anchor="middle" x="768.3115" y="-931.8" font-family="Times,serif" font-size="14.00" fill="#000000">Control 3.5: Use File Integrity Tools For Critical System Files</text>
</g>
<!-- control_3&#45;&#45;control_3_5 -->
<g id="edge6" class="edge">
<title>control_3&#45;&#45;control_3_5</title>
<path fill="none" stroke="#000000" d="M319.6997,-910.9418C375.2247,-914.0432 487.7077,-920.3262 586.144,-925.8246"/>
</g>
<!-- install_AIDE -->
<g id="node8" class="node">
<title>install_AIDE</title>
<ellipse fill="none" stroke="#000000" cx="1332.9965" cy="-1044" rx="97.5893" ry="18"/>
<text text-anchor="middle" x="1332.9965" y="-1039.8" font-family="Times,serif" font-size="14.00" fill="#000000">Ensure AIDE is installed</text>
</g>
<!-- control_3_5&#45;&#45;install_AIDE -->
<g id="edge7" class="edge">
<title>control_3_5&#45;&#45;install_AIDE</title>
<path fill="none" stroke="#000000" d="M950.6305,-933.7969C978.9066,-939.2462 1006.7361,-948.3827 1030.9775,-963 1055.6788,-977.8945 1042.2667,-1002.1213 1066.9775,-1017 1121.2618,-1049.6852 1193.2876,-1055.191 1248.702,-1053.209"/>
</g>
<!-- integrity_check -->
<g id="node9" class="node">
<title>integrity_check</title>
<ellipse fill="none" stroke="#000000" cx="1332.9965" cy="-990" rx="178.1628" ry="18"/>
<text text-anchor="middle" x="1332.9965" y="-985.8" font-family="Times,serif" font-size="14.00" fill="#000000">Ensure filesystem integrity is regularly checked</text>
</g>
<!-- control_3_5&#45;&#45;integrity_check -->
<g id="edge8" class="edge">
<title>control_3_5&#45;&#45;integrity_check</title>
<path fill="none" stroke="#000000" d="M950.4791,-953.4204C1032.8321,-961.2957 1128.2491,-970.4203 1203.1837,-977.5862"/>
</g>
<!-- prelink -->
<g id="node10" class="node">
<title>prelink</title>
<ellipse fill="none" stroke="#000000" cx="1332.9965" cy="-936" rx="101.931" ry="18"/>
<text text-anchor="middle" x="1332.9965" y="-931.8" font-family="Times,serif" font-size="14.00" fill="#000000">Ensure prelink is disabled</text>
</g>
<!-- control_3_5&#45;&#45;prelink -->
<g id="edge9" class="edge">
<title>control_3_5&#45;&#45;prelink</title>
<path fill="none" stroke="#000000" d="M950.4791,-936C1043.4687,-936 1153.1149,-936 1231.1217,-936"/>
</g>
<!-- control_4_5 -->
<g id="node12" class="node">
<title>control_4_5</title>
<polygon fill="none" stroke="#000000" points="990.3574,-792 546.2656,-792 546.2656,-756 990.3574,-756 990.3574,-792"/>
<text text-anchor="middle" x="768.3115" y="-769.8" font-family="Times,serif" font-size="14.00" fill="#000000">Control 4.5: Use Automated Patch Management And Software Update Tools</text>
</g>
<!-- control_4&#45;&#45;control_4_5 -->
<g id="edge11" class="edge">
<title>control_4&#45;&#45;control_4_5</title>
<path fill="none" stroke="#000000" d="M319.6997,-686.7602C393.3,-701.073 566.9783,-734.8475 675.3623,-755.9245"/>
</g>
<!-- config_yum -->
<g id="node13" class="node">
<title>config_yum</title>
<ellipse fill="none" stroke="#000000" cx="1332.9965" cy="-882" rx="195.007" ry="18"/>
<text text-anchor="middle" x="1332.9965" y="-877.8" font-family="Times,serif" font-size="14.00" fill="#000000">Ensure package manager repositories are configured</text>
</g>
<!-- control_4_5&#45;&#45;config_yum -->
<g id="edge12" class="edge">
<title>control_4_5&#45;&#45;config_yum</title>
<path fill="none" stroke="#000000" d="M824.1028,-792.079C883.6305,-810.6708 981.0003,-839.0888 1066.9775,-855 1103.3803,-861.7368 1142.9187,-866.8965 1180.1063,-870.808"/>
</g>
<!-- yum_gpg -->
<g id="node14" class="node">
<title>yum_gpg</title>
<ellipse fill="none" stroke="#000000" cx="1332.9965" cy="-828" rx="126.0524" ry="18"/>
<text text-anchor="middle" x="1332.9965" y="-823.8" font-family="Times,serif" font-size="14.00" fill="#000000">Ensure GPG keys are configured</text>
</g>
<!-- control_4_5&#45;&#45;yum_gpg -->
<g id="edge13" class="edge">
<title>control_4_5&#45;&#45;yum_gpg</title>
<path fill="none" stroke="#000000" d="M956.7359,-792.0187C1047.1812,-800.6679 1152.1378,-810.7047 1228.183,-817.9768"/>
</g>
<!-- yum_gpg_check -->
<g id="node15" class="node">
<title>yum_gpg_check</title>
<ellipse fill="none" stroke="#000000" cx="1332.9965" cy="-774" rx="144.3765" ry="18"/>
<text text-anchor="middle" x="1332.9965" y="-769.8" font-family="Times,serif" font-size="14.00" fill="#000000">Ensure gpgcheck is globally activated</text>
</g>
<!-- control_4_5&#45;&#45;yum_gpg_check -->
<g id="edge14" class="edge">
<title>control_4_5&#45;&#45;yum_gpg_check</title>
<path fill="none" stroke="#000000" d="M990.6794,-774C1057.1898,-774 1128.3554,-774 1188.4746,-774"/>
</g>
<!-- yum_security_update -->
<g id="node16" class="node">
<title>yum_security_update</title>
<ellipse fill="none" stroke="#000000" cx="1332.9965" cy="-720" rx="257.7751" ry="18"/>
<text text-anchor="middle" x="1332.9965" y="-715.8" font-family="Times,serif" font-size="14.00" fill="#000000">Ensure updates, patches, and additional security software are installed</text>
</g>
<!-- control_4_5&#45;&#45;yum_security_update -->
<g id="edge15" class="edge">
<title>control_4_5&#45;&#45;yum_security_update</title>
<path fill="none" stroke="#000000" d="M956.7359,-755.9813C1029.5412,-749.019 1111.7493,-741.1575 1180.7114,-734.5628"/>
</g>
<!-- control_5_1 -->
<g id="node18" class="node">
<title>control_5_1</title>
<polygon fill="none" stroke="#000000" points="967.1875,-549 569.4355,-549 569.4355,-513 967.1875,-513 967.1875,-549"/>
<text text-anchor="middle" x="768.3115" y="-526.8" font-family="Times,serif" font-size="14.00" fill="#000000">Control 5.1: Minimize And Sparingly Use Administrative Privileges</text>
</g>
<!-- control_5&#45;&#45;control_5_1 -->
<g id="edge17" class="edge">
<title>control_5&#45;&#45;control_5_1</title>
<path fill="none" stroke="#000000" d="M319.6997,-531C372.0858,-531 475.1723,-531 569.3283,-531"/>
</g>
<!-- bootloader_perms -->
<g id="node19" class="node">
<title>bootloader_perms</title>
<ellipse fill="none" stroke="#000000" cx="1332.9965" cy="-666" rx="207.6383" ry="18"/>
<text text-anchor="middle" x="1332.9965" y="-661.8" font-family="Times,serif" font-size="14.00" fill="#000000">Ensure permissions on bootloader config are configured</text>
</g>
<!-- control_5_1&#45;&#45;bootloader_perms -->
<g id="edge18" class="edge">
<title>control_5_1&#45;&#45;bootloader_perms</title>
<path fill="none" stroke="#000000" d="M808.4206,-549.1031C864.8736,-573.7429 971.5546,-617.254 1066.9775,-639 1098.5469,-646.1944 1132.6613,-651.4727 1165.5904,-655.345"/>
</g>
<!-- bootloader_passwd -->
<g id="node20" class="node">
<title>bootloader_passwd</title>
<ellipse fill="none" stroke="#000000" cx="1332.9965" cy="-612" rx="130.4045" ry="18"/>
<text text-anchor="middle" x="1332.9965" y="-607.8" font-family="Times,serif" font-size="14.00" fill="#000000">Ensure bootloader password is set</text>
</g>
<!-- control_5_1&#45;&#45;bootloader_passwd -->
<g id="edge19" class="edge">
<title>control_5_1&#45;&#45;bootloader_passwd</title>
<path fill="none" stroke="#000000" d="M857.5417,-549.0068C916.7477,-560.4915 996.2779,-575.0361 1066.9775,-585 1117.5411,-592.1261 1173.767,-598.1132 1221.4536,-602.6245"/>
</g>
<!-- single_user_mode_auth -->
<g id="node21" class="node">
<title>single_user_mode_auth</title>
<ellipse fill="none" stroke="#000000" cx="1332.9965" cy="-558" rx="193.1045" ry="18"/>
<text text-anchor="middle" x="1332.9965" y="-553.8" font-family="Times,serif" font-size="14.00" fill="#000000">Ensure authentication required for single user mode</text>
</g>
<!-- control_5_1&#45;&#45;single_user_mode_auth -->
<g id="edge20" class="edge">
<title>control_5_1&#45;&#45;single_user_mode_auth</title>
<path fill="none" stroke="#000000" d="M967.3983,-540.5192C1030.5871,-543.5405 1099.8859,-546.854 1160.9994,-549.7761"/>
</g>
<!-- etc_motd_perms -->
<g id="node22" class="node">
<title>etc_motd_perms</title>
<ellipse fill="none" stroke="#000000" cx="1332.9965" cy="-504" rx="178.6646" ry="18"/>
<text text-anchor="middle" x="1332.9965" y="-499.8" font-family="Times,serif" font-size="14.00" fill="#000000">Ensure permissions on /etc/motd are configured</text>
</g>
<!-- control_5_1&#45;&#45;etc_motd_perms -->
<g id="edge21" class="edge">
<title>control_5_1&#45;&#45;etc_motd_perms</title>
<path fill="none" stroke="#000000" d="M967.3983,-521.4808C1034.08,-518.2925 1107.5657,-514.7788 1171.0564,-511.743"/>
</g>
<!-- etc_issue_perms -->
<g id="node23" class="node">
<title>etc_issue_perms</title>
<ellipse fill="none" stroke="#000000" cx="1332.9965" cy="-450" rx="178.18" ry="18"/>
<text text-anchor="middle" x="1332.9965" y="-445.8" font-family="Times,serif" font-size="14.00" fill="#000000">Ensure permissions on /etc/issue are configured</text>
</g>
<!-- control_5_1&#45;&#45;etc_issue_perms -->
<g id="edge22" class="edge">
<title>control_5_1&#45;&#45;etc_issue_perms</title>
<path fill="none" stroke="#000000" d="M857.5417,-512.9932C916.7477,-501.5085 996.2779,-486.9639 1066.9775,-477 1109.2671,-471.04 1155.5174,-465.8767 1197.4201,-461.7072"/>
</g>
<!-- etc_issuenet_perms -->
<g id="node24" class="node">
<title>etc_issuenet_perms</title>
<ellipse fill="none" stroke="#000000" cx="1332.9965" cy="-396" rx="266.0379" ry="18"/>
<text text-anchor="middle" x="1332.9965" y="-391.8" font-family="Times,serif" font-size="14.00" fill="#000000">1.7.1.6 Ensure permissions on /etc/issue.net are configured (Not Scored)</text>
</g>
<!-- control_5_1&#45;&#45;etc_issuenet_perms -->
<g id="edge23" class="edge">
<title>control_5_1&#45;&#45;etc_issuenet_perms</title>
<path fill="none" stroke="#000000" d="M808.4206,-512.8969C864.8736,-488.2571 971.5546,-444.746 1066.9775,-423 1092.7761,-417.1207 1120.2744,-412.521 1147.4365,-408.9226"/>
</g>
<!-- control_6_3 -->
<g id="node26" class="node">
<title>control_6_3</title>
<polygon fill="none" stroke="#000000" points="1031.1437,-360 505.4794,-360 505.4794,-324 1031.1437,-324 1031.1437,-360"/>
<text text-anchor="middle" x="768.3115" y="-337.8" font-family="Times,serif" font-size="14.00" fill="#000000">Control 6.3: Ensure Audit Logging Systems Are Not Subject To Loss (i.e. rotation/archive)</text>
</g>
<!-- control_6&#45;&#45;control_6_3 -->
<g id="edge25" class="edge">
<title>control_6&#45;&#45;control_6_3</title>
<path fill="none" stroke="#000000" d="M319.6997,-417.1747C390.053,-405.3855 551.8486,-378.2731 660.6503,-360.041"/>
</g>
<!-- var_log_partition -->
<g id="node27" class="node">
<title>var_log_partition</title>
<ellipse fill="none" stroke="#000000" cx="1332.9965" cy="-342" rx="162.7183" ry="18"/>
<text text-anchor="middle" x="1332.9965" y="-337.8" font-family="Times,serif" font-size="14.00" fill="#000000">Ensure separate partition exists for /var/log</text>
</g>
<!-- control_6_3&#45;&#45;var_log_partition -->
<g id="edge26" class="edge">
<title>control_6_3&#45;&#45;var_log_partition</title>
<path fill="none" stroke="#000000" d="M1031.229,-342C1078.5677,-342 1126.638,-342 1170.0832,-342"/>
</g>
<!-- var_log_audit_partition -->
<g id="node28" class="node">
<title>var_log_audit_partition</title>
<ellipse fill="none" stroke="#000000" cx="1332.9965" cy="-288" rx="182.9978" ry="18"/>
<text text-anchor="middle" x="1332.9965" y="-283.8" font-family="Times,serif" font-size="14.00" fill="#000000">Ensure separate partition exists for /var/log/audit</text>
</g>
<!-- control_6_3&#45;&#45;var_log_audit_partition -->
<g id="edge27" class="edge">
<title>control_6_3&#45;&#45;var_log_audit_partition</title>
<path fill="none" stroke="#000000" d="M956.7359,-323.9813C1037.0783,-316.2982 1128.8711,-307.5202 1201.6781,-300.5578"/>
</g>
<!-- removable_media_noexec -->
<g id="node30" class="node">
<title>removable_media_noexec</title>
<ellipse fill="none" stroke="#000000" cx="768.3115" cy="-288" rx="208.5653" ry="18"/>
<text text-anchor="middle" x="768.3115" y="-283.8" font-family="Times,serif" font-size="14.00" fill="#000000">Ensure noexec option set on removable media partitions</text>
</g>
<!-- control_8&#45;&#45;removable_media_noexec -->
<g id="edge29" class="edge">
<title>control_8&#45;&#45;removable_media_noexec</title>
<path fill="none" stroke="#000000" d="M375.572,-266.0626C436.6697,-269.4754 519.2638,-274.0889 592.9447,-278.2045"/>
</g>
<!-- control_8_3 -->
<g id="node31" class="node">
<title>control_8_3</title>
<polygon fill="none" stroke="#000000" points="929.3086,-252 607.3145,-252 607.3145,-216 929.3086,-216 929.3086,-252"/>
<text text-anchor="middle" x="768.3115" y="-229.8" font-family="Times,serif" font-size="14.00" fill="#000000">Control 8.3: Limit Use Of External Devices (i.e. USB)</text>
</g>
<!-- control_8&#45;&#45;control_8_3 -->
<g id="edge30" class="edge">
<title>control_8&#45;&#45;control_8_3</title>
<path fill="none" stroke="#000000" d="M375.572,-255.9374C440.6336,-252.3032 530.0712,-247.3074 607.1644,-243.0012"/>
</g>
<!-- control_8_4 -->
<g id="node33" class="node">
<title>control_8_4</title>
<ellipse fill="none" stroke="#000000" cx="768.3115" cy="-180" rx="221.1879" ry="18"/>
<text text-anchor="middle" x="768.3115" y="-175.8" font-family="Times,serif" font-size="14.00" fill="#000000">Enable Anti&#45;exploitation Features (i.e. DEP, ASLR, EMET)</text>
</g>
<!-- control_8&#45;&#45;control_8_4 -->
<g id="edge32" class="edge">
<title>control_8&#45;&#45;control_8_4</title>
<path fill="none" stroke="#000000" d="M348.6716,-242.94C392.493,-231.1328 452.1977,-216.2403 505.6455,-207 539.4115,-201.1624 575.8535,-196.4318 610.5298,-192.6596"/>
</g>
<!-- disable_automounting -->
<g id="node32" class="node">
<title>disable_automounting</title>
<ellipse fill="none" stroke="#000000" cx="1332.9965" cy="-234" rx="90.3729" ry="18"/>
<text text-anchor="middle" x="1332.9965" y="-229.8" font-family="Times,serif" font-size="14.00" fill="#000000">Disable Automounting</text>
</g>
<!-- control_8_3&#45;&#45;disable_automounting -->
<g id="edge31" class="edge">
<title>control_8_3&#45;&#45;disable_automounting</title>
<path fill="none" stroke="#000000" d="M929.3719,-234C1030.9169,-234 1158.3034,-234 1242.5007,-234"/>
</g>
<!-- no_execute -->
<g id="node34" class="node">
<title>no_execute</title>
<ellipse fill="none" stroke="#000000" cx="1332.9965" cy="-180" rx="131.3735" ry="18"/>
<text text-anchor="middle" x="1332.9965" y="-175.8" font-family="Times,serif" font-size="14.00" fill="#000000">Ensure XD/NX support is enabled</text>
</g>
<!-- control_8_4&#45;&#45;no_execute -->
<g id="edge33" class="edge">
<title>control_8_4&#45;&#45;no_execute</title>
<path fill="none" stroke="#000000" d="M989.8693,-180C1061.399,-180 1138.3929,-180 1201.2864,-180"/>
</g>
<!-- aslr -->
<g id="node35" class="node">
<title>aslr</title>
<ellipse fill="none" stroke="#000000" cx="1332.9965" cy="-126" rx="231.2497" ry="18"/>
<text text-anchor="middle" x="1332.9965" y="-121.8" font-family="Times,serif" font-size="14.00" fill="#000000">Ensure address space layout randomization (ASLR) is enabled</text>
</g>
<!-- control_8_4&#45;&#45;aslr -->
<g id="edge34" class="edge">
<title>control_8_4&#45;&#45;aslr</title>
<path fill="none" stroke="#000000" d="M911.9008,-166.2688C996.04,-158.2227 1102.0582,-148.0843 1186.6662,-139.9934"/>
</g>
<!-- disbale_fs -->
<g id="node37" class="node">
<title>disbale_fs</title>
<ellipse fill="none" stroke="#000000" cx="768.3115" cy="-126" rx="105.8078" ry="18"/>
<text text-anchor="middle" x="768.3115" y="-121.8" font-family="Times,serif" font-size="14.00" fill="#000000">Disable unused filesystems</text>
</g>
<!-- control_13&#45;&#45;disbale_fs -->
<g id="edge36" class="edge">
<title>control_13&#45;&#45;disbale_fs</title>
<path fill="none" stroke="#000000" d="M370.5193,-103.7804C453.6307,-108.4228 579.789,-115.4696 667.6717,-120.3785"/>
</g>
<!-- sticky_bit -->
<g id="node38" class="node">
<title>sticky_bit</title>
<ellipse fill="none" stroke="#000000" cx="768.3115" cy="-72" rx="207.6297" ry="18"/>
<text text-anchor="middle" x="768.3115" y="-67.8" font-family="Times,serif" font-size="14.00" fill="#000000">Ensure sticky bit is set on all world_writable directories</text>
</g>
<!-- control_13&#45;&#45;sticky_bit -->
<g id="edge37" class="edge">
<title>control_13&#45;&#45;sticky_bit</title>
<path fill="none" stroke="#000000" d="M370.5193,-94.2196C432.2766,-90.77 517.8022,-85.9928 593.7308,-81.7516"/>
</g>
<!-- core_dump -->
<g id="node39" class="node">
<title>core_dump</title>
<ellipse fill="none" stroke="#000000" cx="768.3115" cy="-18" rx="126.0092" ry="18"/>
<text text-anchor="middle" x="768.3115" y="-13.8" font-family="Times,serif" font-size="14.00" fill="#000000">Ensure core dumps are restricted</text>
</g>
<!-- control_13&#45;&#45;core_dump -->
<g id="edge38" class="edge">
<title>control_13&#45;&#45;core_dump</title>
<path fill="none" stroke="#000000" d="M348.6716,-80.94C392.493,-69.1328 452.1977,-54.2403 505.6455,-45 554.5441,-36.5462 609.0546,-30.4141 655.6878,-26.1518"/>
</g>
</g>
</svg>
