<?xml version="1.0" encoding="UTF-8" standalone="no"?>
<!DOCTYPE svg PUBLIC "-//W3C//DTD SVG 1.1//EN"
 "http://www.w3.org/Graphics/SVG/1.1/DTD/svg11.dtd">
<!-- Generated by graphviz version 2.40.1 (20161225.0304)
 -->
<!-- Title: controls Pages: 1 -->
<svg width="1538pt" height="908pt"
 viewBox="0.00 0.00 1537.73 908.00" xmlns="http://www.w3.org/2000/svg" xmlns:xlink="http://www.w3.org/1999/xlink">
<g id="graph0" class="graph" transform="scale(1 1) rotate(0) translate(4 904)">
<title>controls</title>
<polygon fill="#ffffff" stroke="transparent" points="-4,4 -4,-904 1533.7272,-904 1533.7272,4 -4,4"/>
<!-- controls -->
<g id="node1" class="node">
<title>controls</title>
<polygon fill="none" stroke="#000000" points="64.3417,-468 -.1142,-468 -.1142,-432 64.3417,-432 64.3417,-468"/>
<text text-anchor="middle" x="32.1138" y="-445.8" font-family="Times,serif" font-size="14.00" fill="#000000">Controls</text>
</g>
<!-- control_2 -->
<g id="node2" class="node">
<title>control_2</title>
<polygon fill="none" stroke="#000000" points="469.8547,-805 100.0183,-805 100.0183,-769 469.8547,-769 469.8547,-805"/>
<text text-anchor="middle" x="284.9365" y="-782.8" font-family="Times,serif" font-size="14.00" fill="#000000">Control 2: Inventory of Authorized and Unauthorized Software</text>
</g>
<!-- controls&#45;&#45;control_2 -->
<g id="edge1" class="edge">
<title>controls&#45;&#45;control_2</title>
<path fill="none" stroke="#000000" d="M34.137,-468.3696C40.7072,-524.7944 63.1871,-694.1285 100.2275,-733 115.7848,-749.3263 135.9795,-760.7973 157.2846,-768.8383"/>
</g>
<!-- control_3 -->
<g id="node6" class="node">
<title>control_3</title>
<polygon fill="none" stroke="#000000" points="319.7164,-724 250.1567,-724 250.1567,-688 319.7164,-688 319.7164,-724"/>
<text text-anchor="middle" x="284.9365" y="-701.8" font-family="Times,serif" font-size="14.00" fill="#000000">Control 3</text>
</g>
<!-- controls&#45;&#45;control_3 -->
<g id="edge5" class="edge">
<title>controls&#45;&#45;control_3</title>
<path fill="none" stroke="#000000" d="M39.2451,-468.0841C49.8251,-493.3439 71.5553,-539.7144 100.2275,-572 144.9494,-622.3578 211.7278,-664.9253 251.5475,-687.8423"/>
</g>
<!-- control_4 -->
<g id="node11" class="node">
<title>control_4</title>
<polygon fill="none" stroke="#000000" points="319.7164,-563 250.1567,-563 250.1567,-527 319.7164,-527 319.7164,-563"/>
<text text-anchor="middle" x="284.9365" y="-540.8" font-family="Times,serif" font-size="14.00" fill="#000000">Control 4</text>
</g>
<!-- controls&#45;&#45;control_4 -->
<g id="edge10" class="edge">
<title>controls&#45;&#45;control_4</title>
<path fill="none" stroke="#000000" d="M64.2736,-462.9364C75.6125,-467.4475 88.4642,-472.504 100.2275,-477 152.2565,-496.8857 212.9129,-519.0161 250.117,-532.4709"/>
</g>
<!-- control_5 -->
<g id="node16" class="node">
<title>control_5</title>
<polygon fill="none" stroke="#000000" points="319.7164,-468 250.1567,-468 250.1567,-432 319.7164,-432 319.7164,-468"/>
<text text-anchor="middle" x="284.9365" y="-445.8" font-family="Times,serif" font-size="14.00" fill="#000000">Control 5</text>
</g>
<!-- controls&#45;&#45;control_5 -->
<g id="edge15" class="edge">
<title>controls&#45;&#45;control_5</title>
<path fill="none" stroke="#000000" d="M64.3907,-450C112.048,-450 200.8859,-450 250.0159,-450"/>
</g>
<!-- control_6 -->
<g id="node21" class="node">
<title>control_6</title>
<polygon fill="none" stroke="#000000" points="319.7164,-387 250.1567,-387 250.1567,-351 319.7164,-351 319.7164,-387"/>
<text text-anchor="middle" x="284.9365" y="-364.8" font-family="Times,serif" font-size="14.00" fill="#000000">Control 6</text>
</g>
<!-- controls&#45;&#45;control_6 -->
<g id="edge20" class="edge">
<title>controls&#45;&#45;control_6</title>
<path fill="none" stroke="#000000" d="M64.4517,-436.4693C75.6928,-431.9563 88.4378,-427.0503 100.2275,-423 151.889,-405.2521 212.9042,-388.1477 250.2523,-378.1042"/>
</g>
<!-- control_8 -->
<g id="node25" class="node">
<title>control_8</title>
<polygon fill="none" stroke="#000000" points="375.6681,-279 194.2049,-279 194.2049,-243 375.6681,-243 375.6681,-279"/>
<text text-anchor="middle" x="284.9365" y="-256.8" font-family="Times,serif" font-size="14.00" fill="#000000">Control 8: Malware Defenses</text>
</g>
<!-- controls&#45;&#45;control_8 -->
<g id="edge24" class="edge">
<title>controls&#45;&#45;control_8</title>
<path fill="none" stroke="#000000" d="M39.6041,-431.6013C50.0329,-408.0131 70.9939,-367.1626 100.2275,-342 134.5948,-312.4187 181.458,-292.0379 219.3803,-279.119"/>
</g>
<!-- control_13 -->
<g id="node32" class="node">
<title>control_13</title>
<polygon fill="none" stroke="#000000" points="370.5782,-117 199.2949,-117 199.2949,-81 370.5782,-81 370.5782,-117"/>
<text text-anchor="middle" x="284.9365" y="-94.8" font-family="Times,serif" font-size="14.00" fill="#000000">Control 13: Data Protection</text>
</g>
<!-- controls&#45;&#45;control_13 -->
<g id="edge31" class="edge">
<title>controls&#45;&#45;control_13</title>
<path fill="none" stroke="#000000" d="M33.9908,-431.8006C38.8303,-392.3497 54.7149,-297.4077 100.2275,-234 138.9065,-180.1129 205.7249,-139.082 247.5096,-117.0658"/>
</g>
<!-- tmp_noexec -->
<g id="node3" class="node">
<title>tmp_noexec</title>
<ellipse fill="none" stroke="#000000" cx="768.3115" cy="-882" rx="160.3311" ry="18"/>
<text text-anchor="middle" x="768.3115" y="-877.8" font-family="Times,serif" font-size="14.00" fill="#000000">Ensure noexec option set on /tmp partition</text>
</g>
<!-- control_2&#45;&#45;tmp_noexec -->
<g id="edge2" class="edge">
<title>control_2&#45;&#45;tmp_noexec</title>
<path fill="none" stroke="#000000" d="M333.7444,-805.0748C377.9978,-820.7291 445.3346,-842.7335 505.6455,-855 545.6264,-863.1316 589.5551,-868.8726 629.8545,-872.9023"/>
</g>
<!-- var_tmp_noexec -->
<g id="node4" class="node">
<title>var_tmp_noexec</title>
<ellipse fill="none" stroke="#000000" cx="768.3115" cy="-828" rx="174.3288" ry="18"/>
<text text-anchor="middle" x="768.3115" y="-823.8" font-family="Times,serif" font-size="14.00" fill="#000000">Ensure noexec option set on /var/tmp partition</text>
</g>
<!-- control_2&#45;&#45;var_tmp_noexec -->
<g id="edge3" class="edge">
<title>control_2&#45;&#45;var_tmp_noexec</title>
<path fill="none" stroke="#000000" d="M469.7489,-802.6758C524.2524,-807.2988 582.8472,-812.2689 633.5699,-816.5712"/>
</g>
<!-- dev_shm_noexec -->
<g id="node5" class="node">
<title>dev_shm_noexec</title>
<ellipse fill="none" stroke="#000000" cx="768.3115" cy="-774" rx="176.7514" ry="18"/>
<text text-anchor="middle" x="768.3115" y="-769.8" font-family="Times,serif" font-size="14.00" fill="#000000">Ensure noexec option set on /dev/shm partition</text>
</g>
<!-- control_2&#45;&#45;dev_shm_noexec -->
<g id="edge4" class="edge">
<title>control_2&#45;&#45;dev_shm_noexec</title>
<path fill="none" stroke="#000000" d="M469.7489,-782.0296C511.7259,-780.9007 556.1297,-779.7065 597.4951,-778.594"/>
</g>
<!-- control_3_5 -->
<g id="node7" class="node">
<title>control_3_5</title>
<polygon fill="none" stroke="#000000" points="950.2949,-738 586.3281,-738 586.3281,-702 950.2949,-702 950.2949,-738"/>
<text text-anchor="middle" x="768.3115" y="-715.8" font-family="Times,serif" font-size="14.00" fill="#000000">Control 3.5: Use File Integrity Tools For Critical System Files</text>
</g>
<!-- control_3&#45;&#45;control_3_5 -->
<g id="edge6" class="edge">
<title>control_3&#45;&#45;control_3_5</title>
<path fill="none" stroke="#000000" d="M319.6997,-707.0068C375.2247,-708.615 487.7077,-711.8729 586.144,-714.7239"/>
</g>
<!-- install_AIDE -->
<g id="node8" class="node">
<title>install_AIDE</title>
<ellipse fill="none" stroke="#000000" cx="1298.3524" cy="-828" rx="97.5893" ry="18"/>
<text text-anchor="middle" x="1298.3524" y="-823.8" font-family="Times,serif" font-size="14.00" fill="#000000">Ensure AIDE is installed</text>
</g>
<!-- control_3_5&#45;&#45;install_AIDE -->
<g id="edge7" class="edge">
<title>control_3_5&#45;&#45;install_AIDE</title>
<path fill="none" stroke="#000000" d="M950.6305,-717.7969C978.9066,-723.2462 1006.7361,-732.3827 1030.9775,-747 1055.6788,-761.8945 1042.3792,-785.9362 1066.9775,-801 1108.5363,-826.4502 1162.2351,-833.9236 1207.4375,-834.7049"/>
</g>
<!-- integrity_check -->
<g id="node9" class="node">
<title>integrity_check</title>
<ellipse fill="none" stroke="#000000" cx="1298.3524" cy="-774" rx="178.1628" ry="18"/>
<text text-anchor="middle" x="1298.3524" y="-769.8" font-family="Times,serif" font-size="14.00" fill="#000000">Ensure filesystem integrity is regularly checked</text>
</g>
<!-- control_3_5&#45;&#45;integrity_check -->
<g id="edge8" class="edge">
<title>control_3_5&#45;&#45;integrity_check</title>
<path fill="none" stroke="#000000" d="M945.1758,-738.0187C1019.686,-745.6098 1104.6881,-754.2697 1172.6276,-761.1913"/>
</g>
<!-- prelink -->
<g id="node10" class="node">
<title>prelink</title>
<ellipse fill="none" stroke="#000000" cx="1298.3524" cy="-720" rx="101.931" ry="18"/>
<text text-anchor="middle" x="1298.3524" y="-715.8" font-family="Times,serif" font-size="14.00" fill="#000000">Ensure prelink is disabled</text>
</g>
<!-- control_3_5&#45;&#45;prelink -->
<g id="edge9" class="edge">
<title>control_3_5&#45;&#45;prelink</title>
<path fill="none" stroke="#000000" d="M950.3507,-720C1032.5823,-720 1126.6688,-720 1196.2621,-720"/>
</g>
<!-- control_4_5 -->
<g id="node12" class="node">
<title>control_4_5</title>
<polygon fill="none" stroke="#000000" points="990.3574,-603 546.2656,-603 546.2656,-567 990.3574,-567 990.3574,-603"/>
<text text-anchor="middle" x="768.3115" y="-580.8" font-family="Times,serif" font-size="14.00" fill="#000000">Control 4.5: Use Automated Patch Management And Software Update Tools</text>
</g>
<!-- control_4&#45;&#45;control_4_5 -->
<g id="edge11" class="edge">
<title>control_4&#45;&#45;control_4_5</title>
<path fill="none" stroke="#000000" d="M319.6997,-547.8767C368.6223,-551.9251 461.7627,-559.6326 550.5528,-566.9801"/>
</g>
<!-- config_yum -->
<g id="node13" class="node">
<title>config_yum</title>
<ellipse fill="none" stroke="#000000" cx="1298.3524" cy="-666" rx="195.007" ry="18"/>
<text text-anchor="middle" x="1298.3524" y="-661.8" font-family="Times,serif" font-size="14.00" fill="#000000">Ensure package manager repositories are configured</text>
</g>
<!-- control_4_5&#45;&#45;config_yum -->
<g id="edge12" class="edge">
<title>control_4_5&#45;&#45;config_yum</title>
<path fill="none" stroke="#000000" d="M859.5671,-603.0318C918.5798,-614.3129 997.1366,-628.6217 1066.9775,-639 1100.1797,-643.9338 1136.1739,-648.5065 1169.6596,-652.4337"/>
</g>
<!-- yum_gpg -->
<g id="node14" class="node">
<title>yum_gpg</title>
<ellipse fill="none" stroke="#000000" cx="1298.3524" cy="-612" rx="126.0524" ry="18"/>
<text text-anchor="middle" x="1298.3524" y="-607.8" font-family="Times,serif" font-size="14.00" fill="#000000">Ensure GPG keys are configured</text>
</g>
<!-- control_4_5&#45;&#45;yum_gpg -->
<g id="edge13" class="edge">
<title>control_4_5&#45;&#45;yum_gpg</title>
<path fill="none" stroke="#000000" d="M990.409,-596.3135C1055.3289,-599.6205 1123.7789,-603.1073 1179.6142,-605.9515"/>
</g>
<!-- yum_gpg_check -->
<g id="node15" class="node">
<title>yum_gpg_check</title>
<ellipse fill="none" stroke="#000000" cx="1298.3524" cy="-558" rx="144.3765" ry="18"/>
<text text-anchor="middle" x="1298.3524" y="-553.8" font-family="Times,serif" font-size="14.00" fill="#000000">Ensure gpgcheck is globally activated</text>
</g>
<!-- control_4_5&#45;&#45;yum_gpg_check -->
<g id="edge14" class="edge">
<title>control_4_5&#45;&#45;yum_gpg_check</title>
<path fill="none" stroke="#000000" d="M990.409,-573.6865C1049.659,-570.6683 1111.8495,-567.5004 1164.707,-564.8078"/>
</g>
<!-- control_5_1 -->
<g id="node17" class="node">
<title>control_5_1</title>
<polygon fill="none" stroke="#000000" points="967.1875,-468 569.4355,-468 569.4355,-432 967.1875,-432 967.1875,-468"/>
<text text-anchor="middle" x="768.3115" y="-445.8" font-family="Times,serif" font-size="14.00" fill="#000000">Control 5.1: Minimize And Sparingly Use Administrative Privileges</text>
</g>
<!-- control_5&#45;&#45;control_5_1 -->
<g id="edge16" class="edge">
<title>control_5&#45;&#45;control_5_1</title>
<path fill="none" stroke="#000000" d="M319.6997,-450C372.0858,-450 475.1723,-450 569.3283,-450"/>
</g>
<!-- bootloader_perms -->
<g id="node18" class="node">
<title>bootloader_perms</title>
<ellipse fill="none" stroke="#000000" cx="1298.3524" cy="-504" rx="207.6383" ry="18"/>
<text text-anchor="middle" x="1298.3524" y="-499.8" font-family="Times,serif" font-size="14.00" fill="#000000">Ensure permissions on bootloader config are configured</text>
</g>
<!-- control_5_1&#45;&#45;bootloader_perms -->
<g id="edge17" class="edge">
<title>control_5_1&#45;&#45;bootloader_perms</title>
<path fill="none" stroke="#000000" d="M945.1758,-468.0187C1016.3744,-475.2724 1097.1531,-483.502 1163.4703,-490.2584"/>
</g>
<!-- bootloader_passwd -->
<g id="node19" class="node">
<title>bootloader_passwd</title>
<ellipse fill="none" stroke="#000000" cx="1298.3524" cy="-450" rx="130.4045" ry="18"/>
<text text-anchor="middle" x="1298.3524" y="-445.8" font-family="Times,serif" font-size="14.00" fill="#000000">Ensure bootloader password is set</text>
</g>
<!-- control_5_1&#45;&#45;bootloader_passwd -->
<g id="edge18" class="edge">
<title>control_5_1&#45;&#45;bootloader_passwd</title>
<path fill="none" stroke="#000000" d="M967.5645,-450C1034.5066,-450 1107.4247,-450 1167.7216,-450"/>
</g>
<!-- single_user_mode_auth -->
<g id="node20" class="node">
<title>single_user_mode_auth</title>
<ellipse fill="none" stroke="#000000" cx="1298.3524" cy="-396" rx="193.1045" ry="18"/>
<text text-anchor="middle" x="1298.3524" y="-391.8" font-family="Times,serif" font-size="14.00" fill="#000000">Ensure authentication required for single user mode</text>
</g>
<!-- control_5_1&#45;&#45;single_user_mode_auth -->
<g id="edge19" class="edge">
<title>control_5_1&#45;&#45;single_user_mode_auth</title>
<path fill="none" stroke="#000000" d="M945.1758,-431.9813C1017.8797,-424.5743 1100.573,-416.1496 1167.6568,-409.3151"/>
</g>
<!-- control_6_3 -->
<g id="node22" class="node">
<title>control_6_3</title>
<polygon fill="none" stroke="#000000" points="1031.1437,-360 505.4794,-360 505.4794,-324 1031.1437,-324 1031.1437,-360"/>
<text text-anchor="middle" x="768.3115" y="-337.8" font-family="Times,serif" font-size="14.00" fill="#000000">Control 6.3: Ensure Audit Logging Systems Are Not Subject To Loss (i.e. rotation/archive)</text>
</g>
<!-- control_6&#45;&#45;control_6_3 -->
<g id="edge21" class="edge">
<title>control_6&#45;&#45;control_6_3</title>
<path fill="none" stroke="#000000" d="M319.6997,-367.0582C360.3963,-364.785 431.6912,-360.8027 505.6268,-356.6728"/>
</g>
<!-- var_log_partition -->
<g id="node23" class="node">
<title>var_log_partition</title>
<ellipse fill="none" stroke="#000000" cx="1298.3524" cy="-342" rx="162.7183" ry="18"/>
<text text-anchor="middle" x="1298.3524" y="-337.8" font-family="Times,serif" font-size="14.00" fill="#000000">Ensure separate partition exists for /var/log</text>
</g>
<!-- control_6_3&#45;&#45;var_log_partition -->
<g id="edge22" class="edge">
<title>control_6_3&#45;&#45;var_log_partition</title>
<path fill="none" stroke="#000000" d="M1031.0027,-342C1066.6661,-342 1102.3857,-342 1135.578,-342"/>
</g>
<!-- var_log_audit_partition -->
<g id="node24" class="node">
<title>var_log_audit_partition</title>
<ellipse fill="none" stroke="#000000" cx="1298.3524" cy="-288" rx="182.9978" ry="18"/>
<text text-anchor="middle" x="1298.3524" y="-283.8" font-family="Times,serif" font-size="14.00" fill="#000000">Ensure separate partition exists for /var/log/audit</text>
</g>
<!-- control_6_3&#45;&#45;var_log_audit_partition -->
<g id="edge23" class="edge">
<title>control_6_3&#45;&#45;var_log_audit_partition</title>
<path fill="none" stroke="#000000" d="M945.1758,-323.9813C1019.0839,-316.4516 1103.315,-307.8702 1170.9772,-300.9768"/>
</g>
<!-- removable_media_noexec -->
<g id="node26" class="node">
<title>removable_media_noexec</title>
<ellipse fill="none" stroke="#000000" cx="768.3115" cy="-288" rx="208.5653" ry="18"/>
<text text-anchor="middle" x="768.3115" y="-283.8" font-family="Times,serif" font-size="14.00" fill="#000000">Ensure noexec option set on removable media partitions</text>
</g>
<!-- control_8&#45;&#45;removable_media_noexec -->
<g id="edge25" class="edge">
<title>control_8&#45;&#45;removable_media_noexec</title>
<path fill="none" stroke="#000000" d="M375.572,-266.0626C436.6697,-269.4754 519.2638,-274.0889 592.9447,-278.2045"/>
</g>
<!-- control_8_3 -->
<g id="node27" class="node">
<title>control_8_3</title>
<polygon fill="none" stroke="#000000" points="929.3086,-252 607.3145,-252 607.3145,-216 929.3086,-216 929.3086,-252"/>
<text text-anchor="middle" x="768.3115" y="-229.8" font-family="Times,serif" font-size="14.00" fill="#000000">Control 8.3: Limit Use Of External Devices (i.e. USB)</text>
</g>
<!-- control_8&#45;&#45;control_8_3 -->
<g id="edge26" class="edge">
<title>control_8&#45;&#45;control_8_3</title>
<path fill="none" stroke="#000000" d="M375.572,-255.9374C440.6336,-252.3032 530.0712,-247.3074 607.1644,-243.0012"/>
</g>
<!-- control_8_4 -->
<g id="node29" class="node">
<title>control_8_4</title>
<ellipse fill="none" stroke="#000000" cx="768.3115" cy="-180" rx="221.1879" ry="18"/>
<text text-anchor="middle" x="768.3115" y="-175.8" font-family="Times,serif" font-size="14.00" fill="#000000">Enable Anti&#45;exploitation Features (i.e. DEP, ASLR, EMET)</text>
</g>
<!-- control_8&#45;&#45;control_8_4 -->
<g id="edge28" class="edge">
<title>control_8&#45;&#45;control_8_4</title>
<path fill="none" stroke="#000000" d="M348.6716,-242.94C392.493,-231.1328 452.1977,-216.2403 505.6455,-207 539.4115,-201.1624 575.8535,-196.4318 610.5298,-192.6596"/>
</g>
<!-- disable_automounting -->
<g id="node28" class="node">
<title>disable_automounting</title>
<ellipse fill="none" stroke="#000000" cx="1298.3524" cy="-234" rx="90.3729" ry="18"/>
<text text-anchor="middle" x="1298.3524" y="-229.8" font-family="Times,serif" font-size="14.00" fill="#000000">Disable Automounting</text>
</g>
<!-- control_8_3&#45;&#45;disable_automounting -->
<g id="edge27" class="edge">
<title>control_8_3&#45;&#45;disable_automounting</title>
<path fill="none" stroke="#000000" d="M929.5001,-234C1020.7194,-234 1131.4329,-234 1207.6205,-234"/>
</g>
<!-- no_execute -->
<g id="node30" class="node">
<title>no_execute</title>
<ellipse fill="none" stroke="#000000" cx="1298.3524" cy="-180" rx="131.3735" ry="18"/>
<text text-anchor="middle" x="1298.3524" y="-175.8" font-family="Times,serif" font-size="14.00" fill="#000000">Ensure XD/NX support is enabled</text>
</g>
<!-- control_8_4&#45;&#45;no_execute -->
<g id="edge29" class="edge">
<title>control_8_4&#45;&#45;no_execute</title>
<path fill="none" stroke="#000000" d="M990.0254,-180C1050.1659,-180 1113.3645,-180 1166.7778,-180"/>
</g>
<!-- aslr -->
<g id="node31" class="node">
<title>aslr</title>
<ellipse fill="none" stroke="#000000" cx="1298.3524" cy="-126" rx="231.2497" ry="18"/>
<text text-anchor="middle" x="1298.3524" y="-121.8" font-family="Times,serif" font-size="14.00" fill="#000000">Ensure address space layout randomization (ASLR) is enabled</text>
</g>
<!-- control_8_4&#45;&#45;aslr -->
<g id="edge30" class="edge">
<title>control_8_4&#45;&#45;aslr</title>
<path fill="none" stroke="#000000" d="M906.5354,-165.9179C983.8323,-158.043 1079.9572,-148.2499 1157.6512,-140.3345"/>
</g>
<!-- disbale_fs -->
<g id="node33" class="node">
<title>disbale_fs</title>
<ellipse fill="none" stroke="#000000" cx="768.3115" cy="-126" rx="105.8078" ry="18"/>
<text text-anchor="middle" x="768.3115" y="-121.8" font-family="Times,serif" font-size="14.00" fill="#000000">Disable unused filesystems</text>
</g>
<!-- control_13&#45;&#45;disbale_fs -->
<g id="edge32" class="edge">
<title>control_13&#45;&#45;disbale_fs</title>
<path fill="none" stroke="#000000" d="M370.5193,-103.7804C453.6307,-108.4228 579.789,-115.4696 667.6717,-120.3785"/>
</g>
<!-- sticky_bit -->
<g id="node34" class="node">
<title>sticky_bit</title>
<ellipse fill="none" stroke="#000000" cx="768.3115" cy="-72" rx="207.6297" ry="18"/>
<text text-anchor="middle" x="768.3115" y="-67.8" font-family="Times,serif" font-size="14.00" fill="#000000">Ensure sticky bit is set on all world_writable directories</text>
</g>
<!-- control_13&#45;&#45;sticky_bit -->
<g id="edge33" class="edge">
<title>control_13&#45;&#45;sticky_bit</title>
<path fill="none" stroke="#000000" d="M370.5193,-94.2196C432.2766,-90.77 517.8022,-85.9928 593.7308,-81.7516"/>
</g>
<!-- core_dump -->
<g id="node35" class="node">
<title>core_dump</title>
<ellipse fill="none" stroke="#000000" cx="768.3115" cy="-18" rx="126.0092" ry="18"/>
<text text-anchor="middle" x="768.3115" y="-13.8" font-family="Times,serif" font-size="14.00" fill="#000000">Ensure core dumps are restricted</text>
</g>
<!-- control_13&#45;&#45;core_dump -->
<g id="edge34" class="edge">
<title>control_13&#45;&#45;core_dump</title>
<path fill="none" stroke="#000000" d="M348.6716,-80.94C392.493,-69.1328 452.1977,-54.2403 505.6455,-45 554.5441,-36.5462 609.0546,-30.4141 655.6878,-26.1518"/>
</g>
</g>
</svg>
